<?xml version="1.0" encoding="utf-8"?>
<!-- Generator: Adobe Illustrator 18.1.1, SVG Export Plug-In . SVG Version: 6.00 Build 0)  -->
<!DOCTYPE svg PUBLIC "-//W3C//DTD SVG 1.0//EN" "http://www.w3.org/TR/2001/REC-SVG-20010904/DTD/svg10.dtd">
<svg version="1.0" xmlns="http://www.w3.org/2000/svg" xmlns:xlink="http://www.w3.org/1999/xlink" x="0px" y="0px"
	 viewBox="0 0 124.8 51.5" style="enable-background:new 0 0 124.8 51.5;" xml:space="preserve">
<g id="Layer_1">
	<path style="fill:#122147;" d="M62.9,9.7c0.2,0,0.3,0,0.5,0c0.2,0,0.3-0.1,0.4-0.2c0.1-0.1,0.2-0.2,0.3-0.3
		c0.1-0.1,0.1-0.3,0.1-0.5c0-0.4-0.1-0.7-0.3-0.8c-0.2-0.2-0.5-0.3-0.9-0.3h-1.8v2.1H62.9z M62.8,6.4c0.3,0,0.6-0.1,0.7-0.2
		c0.2-0.1,0.3-0.4,0.3-0.7c0-0.2,0-0.3-0.1-0.4c-0.1-0.1-0.2-0.2-0.3-0.3c-0.1-0.1-0.2-0.1-0.4-0.1c-0.1,0-0.3,0-0.4,0h-1.6v1.8
		H62.8z M63,3.3c0.4,0,0.7,0,1,0.1c0.3,0.1,0.6,0.2,0.8,0.3c0.2,0.1,0.4,0.3,0.5,0.6c0.1,0.2,0.2,0.5,0.2,0.9c0,0.4-0.1,0.7-0.3,1
		c-0.2,0.3-0.4,0.5-0.8,0.6c0.5,0.1,0.8,0.4,1.1,0.7c0.2,0.3,0.4,0.8,0.4,1.2c0,0.4-0.1,0.7-0.2,1c-0.2,0.3-0.4,0.5-0.6,0.7
		c-0.3,0.2-0.5,0.3-0.9,0.4c-0.3,0.1-0.7,0.1-1,0.1h-3.7V3.3H63z"/>
	<path style="fill:#122147;" d="M68.4,11h-1.5V5.5h1.5V11z M66.9,3.3h1.5v1.3h-1.5V3.3z"/>
	<polygon style="fill:#122147;" points="69.2,5.5 71,5.5 71.9,6.9 72.9,5.5 74.6,5.5 72.8,8.1 74.8,11 73.1,11 71.9,9.3 70.8,11 
		69,11 71,8.1 	"/>
	<path style="fill:#122147;" d="M79.4,7.6c0-0.2-0.1-0.4-0.2-0.6c-0.1-0.2-0.2-0.3-0.4-0.4s-0.4-0.1-0.6-0.1c-0.2,0-0.4,0-0.6,0.1
		c-0.2,0.1-0.3,0.2-0.4,0.4C77.1,7.2,77,7.4,77,7.6c-0.1,0.2-0.1,0.4-0.1,0.7c0,0.2,0,0.5,0.1,0.7c0.1,0.2,0.1,0.4,0.2,0.6
		c0.1,0.2,0.2,0.3,0.4,0.4C77.8,10,78,10,78.2,10c0.2,0,0.4,0,0.6-0.1c0.2-0.1,0.3-0.2,0.4-0.4c0.1-0.2,0.2-0.4,0.2-0.6
		c0.1-0.2,0.1-0.4,0.1-0.7C79.5,8,79.5,7.8,79.4,7.6 M77,3.3v2.8h0c0.2-0.3,0.4-0.5,0.8-0.6c0.3-0.1,0.7-0.2,1-0.2
		c0.3,0,0.6,0.1,0.8,0.2c0.3,0.1,0.5,0.3,0.7,0.5c0.2,0.2,0.4,0.5,0.5,0.9C81,7.3,81,7.7,81,8.2c0,0.5-0.1,1-0.2,1.3
		c-0.1,0.4-0.3,0.7-0.5,0.9c-0.2,0.2-0.5,0.4-0.7,0.5c-0.3,0.1-0.6,0.2-0.8,0.2c-0.4,0-0.8-0.1-1.1-0.2c-0.3-0.1-0.6-0.3-0.7-0.7h0
		V11h-1.5V3.3H77z"/>
	<path style="fill:#122147;" d="M84.1,12.7c-0.3,0.2-0.7,0.3-1.2,0.3c-0.2,0-0.3,0-0.5,0c-0.2,0-0.3,0-0.5,0v-1.3c0.1,0,0.3,0,0.4,0
		c0.2,0,0.3,0,0.5,0c0.2,0,0.4-0.1,0.4-0.2c0.1-0.1,0.1-0.3,0.1-0.5c0-0.1,0-0.2-0.1-0.3l-2-5.2H83l1.3,3.8h0l1.2-3.8h1.6l-2.3,6.3
		C84.6,12.2,84.4,12.5,84.1,12.7"/>
	<path style="fill:#122147;" d="M95.7,5.4c-0.1-0.2-0.2-0.3-0.4-0.4c-0.2-0.1-0.3-0.2-0.5-0.3c-0.2-0.1-0.4-0.1-0.6-0.1
		c-0.4,0-0.7,0.1-1,0.2s-0.5,0.3-0.6,0.6c-0.2,0.2-0.3,0.5-0.4,0.8c-0.1,0.3-0.1,0.6-0.1,1c0,0.3,0,0.6,0.1,0.9
		c0.1,0.3,0.2,0.6,0.4,0.8c0.2,0.2,0.4,0.4,0.6,0.6c0.3,0.1,0.6,0.2,1,0.2c0.5,0,0.9-0.2,1.2-0.5C95.7,9,95.9,8.6,96,8.1h1.6
		c0,0.5-0.2,0.9-0.3,1.3c-0.2,0.4-0.4,0.7-0.7,1c-0.3,0.3-0.6,0.5-1,0.6c-0.4,0.1-0.8,0.2-1.3,0.2c-0.6,0-1.1-0.1-1.6-0.3
		c-0.5-0.2-0.9-0.5-1.2-0.8c-0.3-0.4-0.6-0.8-0.7-1.3s-0.3-1-0.3-1.6c0-0.6,0.1-1.1,0.3-1.6s0.4-0.9,0.7-1.3
		c0.3-0.4,0.7-0.7,1.2-0.9c0.5-0.2,1-0.3,1.6-0.3c0.4,0,0.8,0.1,1.2,0.2c0.4,0.1,0.7,0.3,1,0.5c0.3,0.2,0.5,0.5,0.7,0.9
		c0.2,0.3,0.3,0.7,0.4,1.2h-1.6C95.9,5.7,95.8,5.5,95.7,5.4"/>
	<path style="fill:#122147;" d="M102,6.8c-0.2-0.2-0.5-0.3-0.8-0.3c-0.2,0-0.4,0-0.6,0.1s-0.3,0.2-0.4,0.3C100.1,7,100,7.1,100,7.3
		c0,0.1-0.1,0.3-0.1,0.4h2.5C102.3,7.3,102.2,7,102,6.8 M100.3,9.7c0.2,0.2,0.6,0.3,1,0.3c0.3,0,0.6-0.1,0.8-0.2
		c0.2-0.2,0.4-0.3,0.4-0.5h1.3c-0.2,0.7-0.5,1.1-1,1.4c-0.4,0.3-1,0.4-1.6,0.4c-0.4,0-0.8-0.1-1.2-0.2c-0.4-0.1-0.7-0.3-0.9-0.6
		c-0.2-0.3-0.4-0.6-0.6-0.9c-0.1-0.4-0.2-0.8-0.2-1.2c0-0.4,0.1-0.8,0.2-1.2s0.3-0.7,0.6-0.9s0.6-0.5,0.9-0.6
		c0.3-0.2,0.7-0.2,1.2-0.2c0.5,0,0.9,0.1,1.2,0.3c0.4,0.2,0.6,0.4,0.9,0.7c0.2,0.3,0.4,0.7,0.5,1.1c0.1,0.4,0.1,0.8,0.1,1.2h-4
		C99.9,9.1,100,9.5,100.3,9.7"/>
	<path style="fill:#122147;" d="M106.3,5.5v0.8h0c0.2-0.3,0.4-0.6,0.8-0.7c0.3-0.1,0.6-0.2,1-0.2c0.4,0,0.7,0.1,1,0.2
		c0.3,0.1,0.5,0.3,0.6,0.5c0.2,0.2,0.3,0.4,0.3,0.7c0.1,0.3,0.1,0.6,0.1,0.9V11h-1.5V7.9c0-0.5-0.1-0.8-0.2-1
		c-0.1-0.2-0.4-0.3-0.8-0.3c-0.4,0-0.7,0.1-0.9,0.4c-0.2,0.2-0.3,0.7-0.3,1.2V11h-1.5V5.5H106.3z"/>
	<path style="fill:#122147;" d="M114.3,5.5v1h-1.1v2.8c0,0.3,0,0.4,0.1,0.5c0.1,0.1,0.3,0.1,0.5,0.1c0.1,0,0.2,0,0.2,0
		c0.1,0,0.2,0,0.2,0V11c-0.1,0-0.3,0-0.4,0c-0.2,0-0.3,0-0.5,0c-0.2,0-0.5,0-0.7,0c-0.2,0-0.4-0.1-0.6-0.2c-0.2-0.1-0.3-0.2-0.4-0.4
		c-0.1-0.2-0.1-0.4-0.1-0.7V6.5h-0.9v-1h0.9V3.8h1.5v1.7H114.3z"/>
	<path style="fill:#122147;" d="M118.4,6.8c-0.2-0.2-0.5-0.3-0.8-0.3c-0.2,0-0.4,0-0.6,0.1s-0.3,0.2-0.4,0.3
		c-0.1,0.1-0.2,0.3-0.2,0.4c0,0.1-0.1,0.3-0.1,0.4h2.5C118.7,7.3,118.6,7,118.4,6.8 M116.7,9.7c0.2,0.2,0.6,0.3,1,0.3
		c0.3,0,0.6-0.1,0.8-0.2c0.2-0.2,0.4-0.3,0.4-0.5h1.3c-0.2,0.7-0.5,1.1-1,1.4c-0.4,0.3-1,0.4-1.6,0.4c-0.4,0-0.8-0.1-1.2-0.2
		c-0.4-0.1-0.7-0.3-0.9-0.6c-0.2-0.3-0.4-0.6-0.6-0.9c-0.1-0.4-0.2-0.8-0.2-1.2c0-0.4,0.1-0.8,0.2-1.2s0.3-0.7,0.6-0.9
		s0.6-0.5,0.9-0.6c0.3-0.2,0.7-0.2,1.2-0.2c0.5,0,0.9,0.1,1.2,0.3c0.4,0.2,0.6,0.4,0.9,0.7c0.2,0.3,0.4,0.7,0.5,1.1
		c0.1,0.4,0.1,0.8,0.1,1.2h-4C116.3,9.1,116.4,9.5,116.7,9.7"/>
	<path style="fill:#122147;" d="M122.7,5.5v1h0c0.1-0.2,0.2-0.3,0.3-0.5c0.1-0.1,0.3-0.3,0.4-0.4c0.2-0.1,0.3-0.2,0.5-0.2
		c0.2-0.1,0.4-0.1,0.6-0.1c0.1,0,0.2,0,0.3,0.1v1.4c-0.1,0-0.2,0-0.3,0c-0.1,0-0.2,0-0.3,0c-0.3,0-0.5,0-0.7,0.1
		c-0.2,0.1-0.4,0.2-0.5,0.4c-0.1,0.2-0.2,0.4-0.3,0.6c-0.1,0.2-0.1,0.5-0.1,0.7V11h-1.5V5.5H122.7z"/>
	<path style="fill:#122147;" d="M60.3,17.3v5h-0.7v-5h-1v-0.6h1v-0.5c0-0.2,0-0.5,0.1-0.7c0-0.2,0.1-0.4,0.2-0.5
		c0.1-0.1,0.2-0.3,0.4-0.3c0.2-0.1,0.4-0.1,0.7-0.1c0.1,0,0.2,0,0.3,0c0.1,0,0.2,0,0.3,0v0.6c-0.1,0-0.2,0-0.3,0c-0.1,0-0.2,0-0.2,0
		c-0.2,0-0.3,0-0.4,0.1c-0.1,0.1-0.2,0.1-0.2,0.2c0,0.1-0.1,0.2-0.1,0.3c0,0.1,0,0.3,0,0.4v0.5h1.1v0.6H60.3z"/>
	<path style="fill:#122147;" d="M63.6,17.3c-0.2,0.1-0.4,0.3-0.6,0.5c-0.2,0.2-0.3,0.5-0.4,0.8c-0.1,0.3-0.1,0.6-0.1,0.9
		c0,0.3,0,0.6,0.1,0.9c0.1,0.3,0.2,0.5,0.4,0.8c0.2,0.2,0.4,0.4,0.6,0.5c0.2,0.1,0.5,0.2,0.9,0.2c0.3,0,0.6-0.1,0.9-0.2
		c0.2-0.1,0.4-0.3,0.6-0.5c0.2-0.2,0.3-0.5,0.4-0.8c0.1-0.3,0.1-0.6,0.1-0.9c0-0.3,0-0.6-0.1-0.9c-0.1-0.3-0.2-0.5-0.4-0.8
		c-0.2-0.2-0.4-0.4-0.6-0.5c-0.2-0.1-0.5-0.2-0.9-0.2C64.1,17.1,63.8,17.2,63.6,17.3 M65.6,16.8c0.3,0.2,0.6,0.4,0.8,0.6
		c0.2,0.3,0.4,0.6,0.5,0.9c0.1,0.4,0.2,0.7,0.2,1.1c0,0.4-0.1,0.8-0.2,1.1c-0.1,0.4-0.3,0.7-0.5,0.9c-0.2,0.3-0.5,0.5-0.8,0.6
		c-0.3,0.2-0.7,0.2-1.1,0.2c-0.4,0-0.8-0.1-1.1-0.2c-0.3-0.2-0.6-0.4-0.8-0.6c-0.2-0.3-0.4-0.6-0.5-0.9c-0.1-0.4-0.2-0.7-0.2-1.1
		c0-0.4,0.1-0.8,0.2-1.1c0.1-0.4,0.3-0.7,0.5-0.9c0.2-0.3,0.5-0.5,0.8-0.6c0.3-0.2,0.7-0.2,1.1-0.2C64.9,16.5,65.3,16.6,65.6,16.8"
		/>
	<path style="fill:#122147;" d="M68.7,16.7V18h0c0.2-0.5,0.4-0.8,0.8-1c0.4-0.2,0.8-0.4,1.3-0.3v0.7c-0.3,0-0.6,0-0.8,0.1
		c-0.3,0.1-0.5,0.2-0.7,0.4c-0.2,0.2-0.3,0.4-0.4,0.6c-0.1,0.2-0.2,0.5-0.2,0.8v3h-0.7v-5.6H68.7z"/>
	<path style="fill:#122147;" d="M80.8,22.3l-0.1-1.4h0c-0.1,0.3-0.3,0.5-0.5,0.7c-0.2,0.2-0.4,0.4-0.6,0.5c-0.2,0.1-0.5,0.2-0.8,0.3
		c-0.3,0.1-0.5,0.1-0.8,0.1c-0.6,0-1.2-0.1-1.6-0.3c-0.5-0.2-0.9-0.5-1.2-0.9c-0.3-0.4-0.5-0.8-0.7-1.3c-0.2-0.5-0.2-1-0.2-1.6
		c0-0.5,0.1-1.1,0.2-1.6c0.2-0.5,0.4-0.9,0.7-1.3c0.3-0.4,0.7-0.7,1.2-0.9c0.5-0.2,1-0.3,1.6-0.3c0.4,0,0.8,0.1,1.2,0.2
		c0.4,0.1,0.7,0.3,1,0.5c0.3,0.2,0.5,0.5,0.7,0.8c0.2,0.3,0.3,0.7,0.4,1.1h-0.7c0-0.2-0.1-0.5-0.2-0.7c-0.1-0.2-0.3-0.4-0.5-0.6
		c-0.2-0.2-0.5-0.3-0.8-0.5c-0.3-0.1-0.6-0.2-1-0.2c-0.5,0-1,0.1-1.3,0.3c-0.4,0.2-0.7,0.5-0.9,0.8c-0.2,0.3-0.4,0.7-0.5,1.1
		c-0.1,0.4-0.2,0.8-0.2,1.3c0,0.4,0.1,0.8,0.2,1.3c0.1,0.4,0.3,0.8,0.5,1.1c0.2,0.3,0.5,0.6,0.9,0.8c0.4,0.2,0.8,0.3,1.3,0.3
		c0.4,0,0.8-0.1,1.2-0.2c0.3-0.1,0.6-0.3,0.9-0.6c0.2-0.3,0.4-0.6,0.5-0.9c0.1-0.4,0.2-0.7,0.2-1.2H78v-0.6h3.3v4H80.8z"/>
	<rect x="82.7" y="14.4" style="fill:#122147;" width="0.7" height="7.9"/>
	<path style="fill:#122147;" d="M86.2,17.2c-0.2,0.1-0.5,0.3-0.6,0.5c-0.2,0.2-0.3,0.5-0.4,0.8c-0.1,0.3-0.1,0.6-0.1,0.9
		c0,0.3,0,0.6,0.1,0.9c0.1,0.3,0.2,0.5,0.4,0.8c0.2,0.2,0.4,0.4,0.6,0.5c0.2,0.1,0.5,0.2,0.9,0.2c0.3,0,0.6-0.1,0.9-0.2
		c0.2-0.1,0.5-0.3,0.6-0.5c0.2-0.2,0.3-0.5,0.4-0.8c0.1-0.3,0.1-0.6,0.1-0.9c0-0.3,0-0.6-0.1-0.9c-0.1-0.3-0.2-0.5-0.4-0.8
		c-0.2-0.2-0.4-0.4-0.6-0.5c-0.2-0.1-0.5-0.2-0.9-0.2C86.8,17,86.5,17.1,86.2,17.2 M88.2,16.7c0.3,0.2,0.6,0.4,0.8,0.6
		c0.2,0.3,0.4,0.6,0.5,1c0.1,0.4,0.2,0.8,0.2,1.2s-0.1,0.8-0.2,1.2c-0.1,0.4-0.3,0.7-0.5,1c-0.2,0.3-0.5,0.5-0.8,0.6
		c-0.3,0.2-0.7,0.2-1.1,0.2c-0.4,0-0.8-0.1-1.2-0.2c-0.3-0.2-0.6-0.4-0.8-0.6c-0.2-0.3-0.4-0.6-0.5-1c-0.1-0.4-0.2-0.7-0.2-1.2
		s0.1-0.8,0.2-1.2c0.1-0.4,0.3-0.7,0.5-1c0.2-0.3,0.5-0.5,0.8-0.6c0.3-0.2,0.7-0.2,1.2-0.2C87.5,16.4,87.9,16.5,88.2,16.7"/>
	<path style="fill:#122147;" d="M95.3,18.5c-0.1-0.3-0.2-0.5-0.3-0.8c-0.1-0.2-0.3-0.4-0.6-0.6c-0.2-0.1-0.5-0.2-0.8-0.2
		c-0.4,0-0.7,0.1-0.9,0.2c-0.3,0.1-0.5,0.3-0.6,0.6c-0.2,0.2-0.3,0.5-0.3,0.8c-0.1,0.3-0.1,0.6-0.1,0.9c0,0.3,0,0.6,0.1,0.9
		c0.1,0.3,0.2,0.5,0.3,0.8c0.2,0.2,0.4,0.4,0.6,0.6c0.3,0.1,0.6,0.2,0.9,0.2c0.3,0,0.6-0.1,0.8-0.2c0.2-0.1,0.4-0.3,0.6-0.6
		c0.2-0.2,0.3-0.5,0.3-0.8c0.1-0.3,0.1-0.6,0.1-0.9C95.4,19.1,95.3,18.8,95.3,18.5 M91.5,14.4v3.3h0c0.1-0.2,0.2-0.4,0.3-0.5
		c0.1-0.2,0.3-0.3,0.5-0.4c0.2-0.1,0.4-0.2,0.6-0.2c0.2-0.1,0.4-0.1,0.6-0.1c0.4,0,0.8,0.1,1.1,0.2s0.6,0.4,0.8,0.7
		c0.2,0.3,0.4,0.6,0.5,1c0.1,0.4,0.2,0.7,0.2,1.1c0,0.4-0.1,0.8-0.2,1.1c-0.1,0.4-0.3,0.7-0.5,1c-0.2,0.3-0.5,0.5-0.8,0.6
		c-0.3,0.2-0.7,0.2-1.1,0.2c-0.5,0-0.9-0.1-1.2-0.3c-0.4-0.2-0.6-0.5-0.8-0.9h0v1.1h-0.6v-7.9H91.5z"/>
	<path style="fill:#122147;" d="M100.7,19.2c0,0.1-0.1,0.1-0.3,0.2c-0.1,0-0.2,0.1-0.3,0.1c-0.3,0.1-0.6,0.1-0.9,0.1
		c-0.3,0-0.6,0.1-0.9,0.2c-0.3,0.1-0.5,0.2-0.6,0.3c-0.2,0.2-0.2,0.4-0.2,0.6c0,0.2,0,0.3,0.1,0.5c0.1,0.1,0.2,0.3,0.3,0.4
		c0.1,0.1,0.3,0.2,0.4,0.2c0.2,0.1,0.3,0.1,0.5,0.1c0.3,0,0.5,0,0.8-0.1c0.2-0.1,0.5-0.2,0.6-0.4c0.2-0.2,0.3-0.3,0.4-0.6
		c0.1-0.2,0.2-0.5,0.2-0.7L100.7,19.2L100.7,19.2z M97.3,17.5c0.1-0.2,0.3-0.4,0.5-0.6c0.2-0.2,0.4-0.3,0.7-0.3
		c0.3-0.1,0.6-0.1,0.9-0.1c0.2,0,0.5,0,0.7,0.1c0.2,0,0.5,0.1,0.7,0.3s0.4,0.3,0.5,0.6c0.1,0.2,0.2,0.5,0.2,0.9v3
		c0,0.3,0.1,0.4,0.4,0.4c0.1,0,0.2,0,0.2,0v0.6c-0.1,0-0.2,0-0.2,0c-0.1,0-0.1,0-0.2,0c-0.2,0-0.3,0-0.4-0.1c-0.1,0-0.2-0.1-0.2-0.2
		c-0.1-0.1-0.1-0.2-0.1-0.3c0-0.1,0-0.3,0-0.4h0c-0.1,0.2-0.3,0.3-0.4,0.5c-0.1,0.1-0.3,0.3-0.4,0.4c-0.2,0.1-0.3,0.2-0.5,0.2
		c-0.2,0.1-0.4,0.1-0.7,0.1c-0.3,0-0.5,0-0.7-0.1c-0.2-0.1-0.4-0.2-0.6-0.3c-0.2-0.1-0.3-0.3-0.4-0.5c-0.1-0.2-0.1-0.5-0.1-0.7
		c0-0.4,0.1-0.7,0.3-0.9c0.2-0.2,0.4-0.4,0.7-0.5s0.6-0.2,1-0.2c0.4,0,0.7-0.1,1.1-0.1c0.1,0,0.3,0,0.4-0.1s0.2-0.1,0.3-0.1
		c0.1-0.1,0.1-0.1,0.2-0.2c0-0.1,0.1-0.2,0.1-0.4c0-0.2,0-0.4-0.1-0.6c-0.1-0.2-0.2-0.3-0.3-0.4c-0.1-0.1-0.3-0.1-0.5-0.2
		c-0.2,0-0.4,0-0.6,0c-0.4,0-0.8,0.1-1.1,0.3c-0.3,0.2-0.4,0.5-0.4,1h-0.7C97.1,18,97.2,17.7,97.3,17.5"/>
	<rect x="102.8" y="14.4" style="fill:#122147;" width="0.7" height="7.9"/>
	<path style="fill:#122147;" d="M63,29.3c0.2,0,0.4,0,0.6-0.1c0.2-0.1,0.4-0.2,0.5-0.3c0.2-0.1,0.3-0.3,0.4-0.5
		c0.1-0.2,0.1-0.4,0.1-0.6c0-0.5-0.1-0.9-0.4-1.1c-0.3-0.3-0.7-0.4-1.3-0.4h-2.8v3.1H63z M63,25.6c0.3,0,0.6,0,0.9,0.1
		c0.3,0.1,0.5,0.2,0.8,0.4c0.2,0.2,0.4,0.4,0.5,0.6c0.1,0.3,0.2,0.6,0.2,0.9c0,0.5-0.1,0.9-0.4,1.3c-0.3,0.4-0.6,0.6-1.1,0.7v0
		c0.3,0,0.5,0.1,0.6,0.2c0.2,0.1,0.3,0.2,0.4,0.4c0.1,0.2,0.2,0.3,0.2,0.5c0,0.2,0.1,0.4,0.1,0.7c0,0.1,0,0.3,0,0.5
		c0,0.2,0,0.4,0,0.6c0,0.2,0.1,0.4,0.1,0.5c0,0.2,0.1,0.3,0.2,0.4h-0.8c0-0.1-0.1-0.2-0.1-0.3c0-0.1,0-0.2-0.1-0.3
		c0-0.1,0-0.2,0-0.3c0-0.1,0-0.2,0-0.3c0-0.3,0-0.6-0.1-0.8c0-0.3-0.1-0.5-0.2-0.7c-0.1-0.2-0.3-0.4-0.5-0.5C63.7,30,63.4,30,63,30
		h-2.8v3.5h-0.7v-7.9H63z"/>
	<path style="fill:#122147;" d="M69.9,29.5c-0.1-0.2-0.2-0.5-0.4-0.6c-0.2-0.2-0.3-0.3-0.6-0.5c-0.2-0.1-0.5-0.2-0.7-0.2
		c-0.3,0-0.5,0.1-0.8,0.2c-0.2,0.1-0.4,0.3-0.6,0.5c-0.2,0.2-0.3,0.4-0.4,0.6c-0.1,0.2-0.2,0.5-0.2,0.8h3.7
		C70.1,30,70,29.7,69.9,29.5 M66.5,31.6c0.1,0.3,0.2,0.5,0.3,0.7c0.2,0.2,0.3,0.4,0.6,0.5c0.2,0.1,0.5,0.2,0.8,0.2
		c0.5,0,0.9-0.1,1.2-0.4c0.3-0.3,0.5-0.6,0.6-1.1h0.7c-0.1,0.6-0.4,1.1-0.8,1.5c-0.4,0.4-0.9,0.5-1.7,0.5c-0.4,0-0.8-0.1-1.2-0.2
		c-0.3-0.2-0.6-0.4-0.8-0.6c-0.2-0.3-0.4-0.6-0.5-1c-0.1-0.4-0.1-0.7-0.1-1.1c0-0.4,0-0.7,0.1-1.1c0.1-0.4,0.3-0.7,0.5-1
		c0.2-0.3,0.5-0.5,0.8-0.7c0.3-0.2,0.7-0.3,1.2-0.3c0.5,0,0.8,0.1,1.2,0.3c0.3,0.2,0.6,0.4,0.8,0.7c0.2,0.3,0.3,0.6,0.4,1
		c0.1,0.4,0.1,0.8,0.1,1.2h-4.4C66.4,31.1,66.4,31.3,66.5,31.6"/>
	<path style="fill:#122147;" d="M76.1,29.8c-0.1-0.3-0.2-0.5-0.3-0.8c-0.1-0.2-0.3-0.4-0.6-0.6c-0.2-0.1-0.5-0.2-0.8-0.2
		c-0.4,0-0.7,0.1-1,0.2c-0.3,0.1-0.5,0.3-0.6,0.5c-0.2,0.2-0.3,0.5-0.3,0.8c-0.1,0.3-0.1,0.6-0.1,0.9c0,0.3,0,0.6,0.1,0.9
		c0.1,0.3,0.2,0.5,0.3,0.8c0.2,0.2,0.4,0.4,0.6,0.6c0.3,0.1,0.6,0.2,0.9,0.2c0.3,0,0.6-0.1,0.8-0.2c0.2-0.1,0.4-0.3,0.6-0.6
		c0.2-0.2,0.3-0.5,0.3-0.8c0.1-0.3,0.1-0.6,0.1-0.9C76.2,30.3,76.2,30.1,76.1,29.8 M72.3,27.8v1.1h0c0.2-0.4,0.4-0.7,0.8-0.9
		c0.4-0.2,0.8-0.3,1.2-0.3c0.4,0,0.8,0.1,1.1,0.2c0.3,0.2,0.6,0.4,0.8,0.7c0.2,0.3,0.4,0.6,0.5,1c0.1,0.4,0.2,0.7,0.2,1.1
		c0,0.4-0.1,0.8-0.2,1.1c-0.1,0.4-0.3,0.7-0.5,1c-0.2,0.3-0.5,0.5-0.8,0.6c-0.3,0.2-0.7,0.2-1.1,0.2c-0.2,0-0.4,0-0.6-0.1
		c-0.2-0.1-0.4-0.1-0.6-0.2c-0.2-0.1-0.3-0.2-0.5-0.4c-0.1-0.2-0.2-0.3-0.3-0.5h0v3.2h-0.7v-7.8H72.3z"/>
	<path style="fill:#122147;" d="M78.6,27.8v1.3h0c0.2-0.5,0.4-0.8,0.8-1.1c0.4-0.2,0.8-0.4,1.3-0.3v0.7c-0.3,0-0.6,0-0.9,0.1
		c-0.3,0.1-0.5,0.2-0.7,0.4c-0.2,0.2-0.3,0.4-0.4,0.7c-0.1,0.3-0.2,0.5-0.2,0.8v3H78v-5.7H78.6z"/>
	<path style="fill:#122147;" d="M82.8,28.4c-0.2,0.1-0.5,0.3-0.6,0.5c-0.2,0.2-0.3,0.5-0.4,0.8c-0.1,0.3-0.1,0.6-0.1,0.9
		c0,0.3,0,0.6,0.1,0.9c0.1,0.3,0.2,0.5,0.4,0.8c0.2,0.2,0.4,0.4,0.6,0.6c0.2,0.1,0.5,0.2,0.9,0.2c0.3,0,0.6-0.1,0.9-0.2
		c0.2-0.1,0.5-0.3,0.6-0.6c0.2-0.2,0.3-0.5,0.4-0.8c0.1-0.3,0.1-0.6,0.1-0.9c0-0.3,0-0.6-0.1-0.9c-0.1-0.3-0.2-0.5-0.4-0.8
		c-0.2-0.2-0.4-0.4-0.6-0.5c-0.2-0.1-0.5-0.2-0.9-0.2C83.3,28.2,83.1,28.3,82.8,28.4 M84.8,27.9c0.3,0.2,0.6,0.4,0.8,0.6
		c0.2,0.3,0.4,0.6,0.5,1c0.1,0.4,0.2,0.8,0.2,1.2c0,0.4-0.1,0.8-0.2,1.2c-0.1,0.4-0.3,0.7-0.5,1c-0.2,0.3-0.5,0.5-0.8,0.6
		c-0.3,0.2-0.7,0.2-1.1,0.2c-0.4,0-0.8-0.1-1.2-0.2c-0.3-0.2-0.6-0.4-0.8-0.6c-0.2-0.3-0.4-0.6-0.5-1C81,31.4,81,31,81,30.6
		c0-0.4,0.1-0.8,0.2-1.2c0.1-0.4,0.3-0.7,0.5-1c0.2-0.3,0.5-0.5,0.8-0.6c0.3-0.2,0.7-0.2,1.2-0.2C84.1,27.6,84.5,27.7,84.8,27.9"/>
	<path style="fill:#122147;" d="M87.9,31.5c0.1,0.3,0.2,0.5,0.3,0.8c0.1,0.2,0.3,0.4,0.6,0.6c0.2,0.1,0.5,0.2,0.8,0.2
		c0.4,0,0.7-0.1,0.9-0.2c0.3-0.1,0.5-0.3,0.6-0.6c0.2-0.2,0.3-0.5,0.3-0.8c0.1-0.3,0.1-0.6,0.1-0.9c0-0.3,0-0.6-0.1-0.9
		c-0.1-0.3-0.2-0.5-0.3-0.8c-0.2-0.2-0.4-0.4-0.6-0.6s-0.6-0.2-0.9-0.2c-0.3,0-0.6,0.1-0.8,0.2c-0.2,0.1-0.4,0.3-0.6,0.6
		c-0.2,0.2-0.3,0.5-0.3,0.8c-0.1,0.3-0.1,0.6-0.1,0.9C87.8,30.9,87.9,31.2,87.9,31.5 M91.7,33.5v-1.1h0c-0.1,0.2-0.2,0.4-0.3,0.5
		c-0.1,0.2-0.3,0.3-0.5,0.4c-0.2,0.1-0.4,0.2-0.6,0.2c-0.2,0.1-0.4,0.1-0.6,0.1c-0.4,0-0.8-0.1-1.1-0.2c-0.3-0.2-0.6-0.4-0.8-0.6
		c-0.2-0.3-0.4-0.6-0.5-1c-0.1-0.4-0.2-0.7-0.2-1.1c0-0.4,0.1-0.8,0.2-1.1c0.1-0.4,0.3-0.7,0.5-1c0.2-0.3,0.5-0.5,0.8-0.7
		c0.3-0.2,0.7-0.2,1.1-0.2c0.2,0,0.4,0,0.6,0.1c0.2,0.1,0.4,0.1,0.6,0.2c0.2,0.1,0.3,0.2,0.5,0.4c0.1,0.2,0.2,0.3,0.3,0.5h0v-3.3
		h0.7v7.9H91.7z"/>
	<path style="fill:#122147;" d="M97.7,33.5v-1h0c-0.2,0.4-0.4,0.7-0.8,0.9c-0.3,0.2-0.7,0.3-1.2,0.3c-0.4,0-0.7,0-0.9-0.1
		s-0.5-0.2-0.6-0.4c-0.2-0.2-0.3-0.4-0.3-0.7c-0.1-0.3-0.1-0.6-0.1-0.9v-3.7h0.7v3.7c0,0.5,0.1,0.9,0.4,1.2s0.6,0.4,1.2,0.4
		c0.3,0,0.6-0.1,0.8-0.2c0.2-0.1,0.4-0.3,0.5-0.5c0.1-0.2,0.2-0.5,0.3-0.7c0.1-0.3,0.1-0.6,0.1-0.8v-3h0.7v5.7H97.7z"/>
	<path style="fill:#122147;" d="M103.1,28.6c-0.3-0.2-0.6-0.4-1.1-0.4c-0.3,0-0.6,0.1-0.9,0.2c-0.2,0.1-0.5,0.3-0.6,0.6
		c-0.2,0.2-0.3,0.5-0.4,0.8c-0.1,0.3-0.1,0.6-0.1,0.9c0,0.3,0,0.6,0.1,0.9c0.1,0.3,0.2,0.5,0.4,0.8c0.2,0.2,0.4,0.4,0.6,0.6
		c0.2,0.1,0.5,0.2,0.9,0.2c0.2,0,0.4,0,0.6-0.1c0.2-0.1,0.4-0.2,0.5-0.3c0.1-0.1,0.3-0.3,0.4-0.5c0.1-0.2,0.2-0.4,0.2-0.6h0.7
		c-0.1,0.7-0.3,1.2-0.8,1.6c-0.4,0.4-0.9,0.6-1.6,0.6c-0.4,0-0.8-0.1-1.1-0.2c-0.3-0.2-0.6-0.4-0.8-0.6c-0.2-0.3-0.4-0.6-0.5-1
		c-0.1-0.4-0.2-0.8-0.2-1.2c0-0.4,0.1-0.8,0.2-1.2c0.1-0.4,0.3-0.7,0.5-1c0.2-0.3,0.5-0.5,0.8-0.6c0.3-0.2,0.7-0.2,1.1-0.2
		c0.6,0,1.1,0.2,1.5,0.5c0.4,0.3,0.7,0.8,0.8,1.5h-0.7C103.5,29.2,103.3,28.8,103.1,28.6"/>
	<path style="fill:#122147;" d="M107.6,27.8v0.6h-1.2v3.8c0,0.2,0,0.4,0.1,0.5c0.1,0.1,0.2,0.2,0.5,0.2c0.2,0,0.4,0,0.6,0v0.6
		c-0.1,0-0.2,0-0.3,0c-0.1,0-0.2,0-0.3,0c-0.5,0-0.8-0.1-1-0.3c-0.2-0.2-0.3-0.5-0.3-1v-3.9h-1v-0.6h1v-1.7h0.7v1.7H107.6z"/>
	<path style="fill:#122147;" d="M108.6,33.5h0.7v-5.7h-0.7V33.5z M108.6,26.7h0.7v-1.1h-0.7V26.7z"/>
	<polygon style="fill:#122147;" points="110.7,27.8 112.5,32.8 112.5,32.8 114.3,27.8 115,27.8 112.9,33.5 112.2,33.5 110,27.8 	"/>
	<path style="fill:#122147;" d="M119.6,29.5c-0.1-0.2-0.2-0.5-0.4-0.6c-0.2-0.2-0.3-0.3-0.6-0.5c-0.2-0.1-0.5-0.2-0.7-0.2
		c-0.3,0-0.5,0.1-0.8,0.2c-0.2,0.1-0.4,0.3-0.6,0.5c-0.2,0.2-0.3,0.4-0.4,0.6c-0.1,0.2-0.2,0.5-0.2,0.8h3.7
		C119.8,30,119.7,29.7,119.6,29.5 M116.2,31.6c0.1,0.3,0.2,0.5,0.3,0.7c0.2,0.2,0.3,0.4,0.6,0.5c0.2,0.1,0.5,0.2,0.8,0.2
		c0.5,0,0.9-0.1,1.2-0.4c0.3-0.3,0.5-0.6,0.6-1.1h0.7c-0.1,0.6-0.4,1.1-0.8,1.5c-0.4,0.4-0.9,0.5-1.7,0.5c-0.4,0-0.8-0.1-1.2-0.2
		c-0.3-0.2-0.6-0.4-0.8-0.6c-0.2-0.3-0.4-0.6-0.5-1c-0.1-0.4-0.1-0.7-0.1-1.1c0-0.4,0-0.7,0.1-1.1c0.1-0.4,0.3-0.7,0.5-1
		c0.2-0.3,0.5-0.5,0.8-0.7c0.3-0.2,0.7-0.3,1.2-0.3c0.5,0,0.8,0.1,1.2,0.3c0.3,0.2,0.6,0.4,0.8,0.7c0.2,0.3,0.3,0.6,0.4,1
		c0.1,0.4,0.1,0.8,0.1,1.2h-4.4C116.1,31.1,116.1,31.3,116.2,31.6"/>
	<polygon style="fill:#122147;" points="60.2,36.8 60.2,40.3 64.9,40.3 64.9,36.8 65.6,36.8 65.6,44.7 64.9,44.7 64.9,40.9 
		60.2,40.9 60.2,44.7 59.4,44.7 59.4,36.8 	"/>
	<path style="fill:#122147;" d="M71,40.7c-0.1-0.2-0.2-0.5-0.4-0.6c-0.2-0.2-0.3-0.3-0.6-0.5c-0.2-0.1-0.5-0.2-0.7-0.2
		c-0.3,0-0.5,0.1-0.8,0.2c-0.2,0.1-0.4,0.3-0.6,0.5c-0.2,0.2-0.3,0.4-0.4,0.6c-0.1,0.2-0.2,0.5-0.2,0.8h3.7
		C71.1,41.2,71.1,40.9,71,40.7 M67.6,42.8c0.1,0.3,0.2,0.5,0.3,0.7c0.2,0.2,0.3,0.4,0.6,0.5c0.2,0.1,0.5,0.2,0.8,0.2
		c0.5,0,0.9-0.1,1.2-0.4c0.3-0.3,0.5-0.6,0.6-1.1h0.7c-0.1,0.6-0.4,1.1-0.8,1.5c-0.4,0.4-0.9,0.5-1.7,0.5c-0.4,0-0.8-0.1-1.2-0.2
		c-0.3-0.2-0.6-0.4-0.8-0.6c-0.2-0.3-0.4-0.6-0.5-1s-0.1-0.7-0.1-1.2c0-0.4,0-0.7,0.1-1.1c0.1-0.4,0.3-0.7,0.5-1
		c0.2-0.3,0.5-0.5,0.8-0.7c0.3-0.2,0.7-0.3,1.2-0.3c0.5,0,0.8,0.1,1.2,0.3c0.3,0.2,0.6,0.4,0.8,0.7c0.2,0.3,0.3,0.6,0.4,1
		c0.1,0.4,0.1,0.8,0.1,1.2h-4.4C67.5,42.3,67.5,42.6,67.6,42.8"/>
	<path style="fill:#122147;" d="M76.4,41.6c0,0.1-0.1,0.1-0.3,0.2c-0.1,0-0.2,0.1-0.3,0.1c-0.3,0.1-0.6,0.1-0.9,0.1
		c-0.3,0-0.6,0.1-0.9,0.2c-0.3,0.1-0.5,0.2-0.6,0.3c-0.2,0.2-0.2,0.4-0.2,0.6c0,0.2,0,0.3,0.1,0.5c0.1,0.1,0.2,0.3,0.3,0.4
		c0.1,0.1,0.3,0.2,0.4,0.2c0.2,0.1,0.3,0.1,0.5,0.1c0.3,0,0.5,0,0.8-0.1c0.2-0.1,0.5-0.2,0.6-0.4c0.2-0.2,0.3-0.3,0.4-0.6
		c0.1-0.2,0.2-0.5,0.2-0.7L76.4,41.6L76.4,41.6z M72.9,39.9c0.1-0.2,0.3-0.4,0.5-0.6c0.2-0.2,0.4-0.3,0.7-0.3
		c0.3-0.1,0.6-0.1,0.9-0.1c0.2,0,0.5,0,0.7,0.1c0.2,0,0.5,0.1,0.7,0.3s0.4,0.3,0.5,0.6c0.1,0.2,0.2,0.5,0.2,0.9v3
		c0,0.3,0.1,0.4,0.4,0.4c0.1,0,0.2,0,0.2,0v0.6c-0.1,0-0.2,0-0.2,0c-0.1,0-0.1,0-0.2,0c-0.2,0-0.3,0-0.4-0.1c-0.1,0-0.2-0.1-0.2-0.2
		c-0.1-0.1-0.1-0.2-0.1-0.3c0-0.1,0-0.3,0-0.4h0c-0.1,0.2-0.3,0.3-0.4,0.5c-0.1,0.1-0.3,0.3-0.4,0.4c-0.2,0.1-0.3,0.2-0.5,0.2
		c-0.2,0.1-0.4,0.1-0.7,0.1c-0.3,0-0.5,0-0.7-0.1c-0.2-0.1-0.4-0.2-0.6-0.3c-0.2-0.1-0.3-0.3-0.4-0.5s-0.1-0.5-0.1-0.7
		c0-0.4,0.1-0.7,0.3-0.9c0.2-0.2,0.4-0.4,0.7-0.5c0.3-0.1,0.6-0.2,1-0.2c0.4,0,0.7-0.1,1.1-0.1c0.1,0,0.3,0,0.4-0.1
		c0.1,0,0.2-0.1,0.3-0.1c0.1-0.1,0.1-0.1,0.2-0.2c0-0.1,0.1-0.2,0.1-0.4c0-0.2,0-0.4-0.1-0.6c-0.1-0.1-0.2-0.3-0.3-0.4
		c-0.1-0.1-0.3-0.1-0.5-0.2c-0.2,0-0.4,0-0.6,0c-0.4,0-0.8,0.1-1.1,0.3c-0.3,0.2-0.4,0.5-0.4,1h-0.7C72.7,40.4,72.8,40.1,72.9,39.9"
		/>
	<rect x="78.5" y="36.8" style="fill:#122147;" width="0.7" height="7.9"/>
	<path style="fill:#122147;" d="M82.8,39v0.6h-1.2v3.8c0,0.2,0,0.4,0.1,0.5c0.1,0.1,0.2,0.2,0.5,0.2c0.2,0,0.4,0,0.6,0v0.6
		c-0.1,0-0.2,0-0.3,0c-0.1,0-0.2,0-0.3,0c-0.5,0-0.8-0.1-1-0.3c-0.2-0.2-0.3-0.5-0.3-1v-3.9h-1V39h1v-1.7h0.7V39H82.8z"/>
	<path style="fill:#122147;" d="M84.4,36.8V40h0c0.1-0.3,0.4-0.6,0.7-0.8c0.3-0.2,0.7-0.3,1.1-0.3c0.4,0,0.7,0.1,1,0.2
		c0.3,0.1,0.5,0.2,0.6,0.4c0.2,0.2,0.3,0.4,0.3,0.7c0.1,0.3,0.1,0.6,0.1,0.9v3.7h-0.7v-3.5c0-0.2,0-0.5-0.1-0.7
		c0-0.2-0.1-0.4-0.2-0.5c-0.1-0.2-0.3-0.3-0.4-0.4c-0.2-0.1-0.4-0.1-0.7-0.1c-0.3,0-0.5,0-0.7,0.1c-0.2,0.1-0.4,0.2-0.6,0.4
		c-0.2,0.2-0.3,0.4-0.4,0.6c-0.1,0.2-0.1,0.5-0.1,0.8v3.3h-0.7v-7.9H84.4z"/>
	<g>
		<defs>
			<path id="SVGID_1_" d="M6.2,18.7v7.5c1.8,10.6,11,18.7,22.1,18.7c12.4,0,22.4-10,22.4-22.4S40.7,0,28.3,0C17.2,0,8,8.1,6.2,18.7"
				/>
		</defs>
		<clipPath id="SVGID_2_">
			<use xlink:href="#SVGID_1_"  style="overflow:visible;"/>
		</clipPath>
		
			<radialGradient id="SVGID_3_" cx="1.4464" cy="54.221" r="1" gradientTransform="matrix(23.5915 0 0 -29.1565 -4.3361 1596.6229)" gradientUnits="userSpaceOnUse">
			<stop  offset="0" style="stop-color:#97D5DD"/>
			<stop  offset="0.1233" style="stop-color:#8BD1DA"/>
			<stop  offset="0.3357" style="stop-color:#6BC7D2"/>
			<stop  offset="0.6115" style="stop-color:#10B9C6"/>
			<stop  offset="0.9371" style="stop-color:#00A8B8"/>
			<stop  offset="1" style="stop-color:#00A5B5"/>
		</radialGradient>
		<rect x="6.2" y="0" style="clip-path:url(#SVGID_2_);fill:url(#SVGID_3_);" width="44.5" height="44.8"/>
	</g>
	<path style="fill:#122147;" d="M35.3,50.3L32.4,51c-1.9,0.4-3.8,0.6-5.8,0.5c-2.1,0-4.3-0.4-6.6-0.9c-3.6-0.8-8.8-3.7-11.5-6.3
		c-2.6-2.5-4.5-5.1-5.8-7.9c-0.3-0.7-1-2.2-1-2.3L0.5,30c0-0.1,0-0.3-0.1-0.4C0.2,28.2,0,26.5,0,25c0-2.3,0.3-4.7,0.9-7.2
		C1.7,14.2,4.6,9,7.3,6.4C9.1,4.6,11,3,13,1.8c-0.9,0.7-2,1.6-2.9,2.4C8.4,5.9,6.6,8.1,5.1,11c-1.4,2.7-2.2,5.3-2.5,7.8
		c-0.1,0.7-0.2,1.4-0.2,2.1c-0.1,1.2-0.1,2.4,0,3.6c0,0.3,0.3,2.9,0.5,3.6l0.9,3.1c0,0.1,0.1,0.3,0.2,0.4c0.6,1.6,1.4,3.1,2.3,4.6
		c0.6,1,1.4,2,2.2,3c0.6,0.7,1.4,1.5,2.2,2.3c3.4,3.3,9.6,6,13.7,6.5c0.6,0.1,1.3,0.2,1.9,0.2c2.6,0.2,5.2,0.1,7.6-0.4
		c0.4-0.1,1-0.3,1.2-0.3l2.8-0.9c0.9-0.4,1.9-0.8,2.9-1.3c4.4-2.3,8.6-5.7,11.8-12c-1,3.3-3.6,7.4-5.8,9.7c-2.1,2.1-4.2,3.8-6.5,5.1
		c-1.2,0.7-2.5,1.2-3.8,1.8C36,50,35.4,50.2,35.3,50.3"/>
	<path style="fill:#FFFFFF;" d="M17.2,13.4c0-1.9,1.6-3.5,3.5-3.5s3.5,1.6,3.5,3.5c0,1.9-1.7,3.5-3.5,3.5
		C18.7,16.9,17.2,15.3,17.2,13.4"/>
	<path style="fill:#FFFFFF;" d="M21.4,31.2c0-1.6,1.3-2.9,2.9-2.9c1.6,0,3,1.3,2.9,2.9c0,1.6-1.4,3-2.9,2.9
		C22.7,34.1,21.4,32.8,21.4,31.2"/>
	<path style="fill:#FFFFFF;" d="M36.5,24.6c0-1.7,1.4-3.2,3.2-3.2c1.7,0,3.2,1.4,3.2,3.2c0,1.8-1.5,3.2-3.2,3.2
		C38,27.7,36.5,26.3,36.5,24.6"/>
	<path style="fill:#FFFFFF;" d="M22.5,10.3c2.5-1.4,5.3-2.2,8.3-2.2c3.9,0,7.4,1.3,10.3,3.5c-3.1-4-7.9-6.6-13.4-6.6
		c-9.3,0-16.9,7.6-16.9,16.9c0,5.5,2.6,10.3,6.6,13.4C15.3,32.4,14,28.8,14,25c0-3.9,1.3-7.6,3.6-10.4"/>
	<path style="fill:#FFFFFF;" d="M41.1,27.2c-0.9,6.2-5.7,11.2-11.9,12.2c0.5,0.1,1,0.1,1.6,0.1c8,0,14.6-6.5,14.6-14.6
		s-6.5-14.6-14.6-14.6c-0.9,0-1.7,0.1-2.5,0.2C34.6,11.3,39.6,16,41,22"/>
	<path style="fill:#FFFFFF;" d="M21.9,31c-2.4-2.1-3.9-5.2-3.9-8.7c0-1.6,0.3-3.2,1-4.6c-1.8,2-2.9,4.7-2.9,7.7
		c0,6.4,5.2,11.6,11.6,11.6c4.8,0,8.8-2.9,10.6-7c-2.1,2.4-5.2,3.9-8.7,3.9c-1,0-2-0.1-3-0.4"/>
</g>
<g id="Layer_2">
	<g>
	</g>
	<g>
	</g>
	<g>
	</g>
	<g>
	</g>
	<g>
	</g>
	<g>
	</g>
</g>
</svg>
