<?xml version="1.0" encoding="UTF-8" standalone="no"?>
<svg width="134px" height="70px" viewBox="0 0 134 70" version="1.1" xmlns="http://www.w3.org/2000/svg" xmlns:xlink="http://www.w3.org/1999/xlink" xmlns:sketch="http://www.bohemiancoding.com/sketch/ns">
    <!-- Generator: Sketch 3.2.2 (9983) - http://www.bohemiancoding.com/sketch -->
    <title>Imported Layers</title>
    <desc>Created with Sketch.</desc>
    <defs></defs>
    <g id="Page-1" stroke="none" stroke-width="1" fill="none" fill-rule="evenodd" sketch:type="MSPage">
        <g id="Imported-Layers" sketch:type="MSLayerGroup">
            <path d="M10.937,30.921 C11.85,30.921 12.681,31.002 13.432,31.163 C14.184,31.324 14.828,31.588 15.365,31.954 C15.902,32.322 16.318,32.809 16.613,33.417 C16.908,34.026 17.056,34.777 17.056,35.671 C17.056,36.638 16.837,37.443 16.398,38.087 C15.96,38.731 15.311,39.259 14.452,39.671 C15.633,40.011 16.515,40.605 17.096,41.455 C17.677,42.305 17.968,43.329 17.968,44.528 C17.968,45.494 17.78,46.331 17.405,47.037 C17.029,47.744 16.523,48.321 15.888,48.768 C15.253,49.215 14.528,49.546 13.715,49.761 C12.9,49.976 12.064,50.083 11.206,50.083 L1.92,50.083 L1.92,30.921 L10.937,30.921 L10.937,30.921 Z M10.401,38.677 C11.151,38.677 11.769,38.498 12.252,38.14 C12.735,37.783 12.976,37.202 12.976,36.397 C12.976,35.95 12.896,35.582 12.735,35.296 C12.574,35.01 12.359,34.786 12.091,34.625 C11.822,34.464 11.514,34.353 11.165,34.29 C10.816,34.228 10.454,34.195 10.078,34.195 L6.133,34.195 L6.133,38.677 L10.401,38.677 L10.401,38.677 Z M10.642,46.809 C11.053,46.809 11.447,46.769 11.822,46.688 C12.199,46.607 12.529,46.473 12.815,46.285 C13.102,46.098 13.33,45.842 13.5,45.521 C13.67,45.199 13.754,44.787 13.754,44.287 C13.754,43.303 13.477,42.6 12.923,42.18 C12.368,41.759 11.635,41.549 10.723,41.549 L6.133,41.549 L6.133,46.809 L10.642,46.809 L10.642,46.809 Z" id="Fill-1" fill="#111930" sketch:type="MSShapeGroup"></path>
            <path d="M24.488,46.755 C25.061,47.31 25.885,47.587 26.958,47.587 C27.727,47.587 28.389,47.395 28.944,47.01 C29.498,46.625 29.838,46.219 29.964,45.789 L33.318,45.789 C32.781,47.453 31.959,48.643 30.849,49.359 C29.74,50.074 28.398,50.432 26.823,50.432 C25.732,50.432 24.748,50.258 23.872,49.909 C22.995,49.559 22.253,49.063 21.644,48.419 C21.036,47.775 20.566,47.006 20.235,46.111 C19.904,45.217 19.738,44.232 19.738,43.159 C19.738,42.121 19.909,41.156 20.249,40.261 C20.588,39.366 21.071,38.593 21.698,37.939 C22.324,37.287 23.071,36.772 23.939,36.397 C24.806,36.02 25.768,35.833 26.823,35.833 C28.005,35.833 29.033,36.061 29.91,36.517 C30.786,36.973 31.507,37.586 32.071,38.355 C32.634,39.125 33.04,40.002 33.292,40.985 C33.542,41.969 33.63,42.998 33.56,44.072 L23.549,44.072 C23.604,45.306 23.917,46.201 24.488,46.755 L24.488,46.755 Z M28.796,39.456 C28.339,38.955 27.646,38.704 26.716,38.704 C26.108,38.704 25.602,38.807 25.2,39.013 C24.797,39.219 24.475,39.474 24.234,39.778 C23.992,40.082 23.823,40.404 23.724,40.744 C23.626,41.084 23.567,41.388 23.549,41.656 L29.749,41.656 C29.569,40.69 29.253,39.956 28.796,39.456 L28.796,39.456 Z" id="Fill-2" fill="#111930" sketch:type="MSShapeGroup"></path>
            <path d="M40.94,54.216 C40.206,54.699 39.187,54.94 37.88,54.94 C37.487,54.94 37.098,54.927 36.713,54.901 C36.328,54.873 35.939,54.842 35.545,54.806 L35.545,51.666 C35.904,51.702 36.271,51.738 36.646,51.774 C37.021,51.809 37.398,51.818 37.773,51.8 C38.274,51.747 38.646,51.55 38.887,51.21 C39.128,50.87 39.249,50.495 39.249,50.083 C39.249,49.779 39.196,49.493 39.088,49.224 L34.231,36.208 L38.283,36.208 L41.423,45.708 L41.477,45.708 L44.509,36.208 L48.454,36.208 L42.657,51.8 C42.246,52.927 41.674,53.732 40.94,54.216" id="Fill-3" fill="#111930" sketch:type="MSShapeGroup"></path>
            <path d="M49.823,40.14 C50.163,39.237 50.646,38.467 51.272,37.832 C51.898,37.197 52.65,36.704 53.527,36.356 C54.402,36.007 55.387,35.833 56.479,35.833 C57.57,35.833 58.558,36.007 59.444,36.356 C60.33,36.704 61.086,37.197 61.711,37.832 C62.338,38.467 62.821,39.237 63.161,40.14 C63.5,41.044 63.671,42.05 63.671,43.159 C63.671,44.268 63.5,45.27 63.161,46.165 C62.821,47.059 62.338,47.825 61.711,48.46 C61.086,49.094 60.33,49.583 59.444,49.922 C58.558,50.262 57.57,50.432 56.479,50.432 C55.387,50.432 54.402,50.262 53.527,49.922 C52.65,49.583 51.898,49.094 51.272,48.46 C50.646,47.825 50.163,47.059 49.823,46.165 C49.483,45.27 49.313,44.268 49.313,43.159 C49.313,42.05 49.483,41.044 49.823,40.14 L49.823,40.14 Z M53.285,44.783 C53.392,45.311 53.575,45.785 53.835,46.205 C54.095,46.625 54.439,46.961 54.869,47.212 C55.298,47.462 55.834,47.587 56.479,47.587 C57.123,47.587 57.664,47.462 58.102,47.212 C58.54,46.961 58.889,46.625 59.149,46.205 C59.408,45.785 59.591,45.311 59.699,44.783 C59.806,44.255 59.86,43.714 59.86,43.159 C59.86,42.605 59.806,42.059 59.699,41.522 C59.591,40.985 59.408,40.511 59.149,40.1 C58.889,39.688 58.54,39.353 58.102,39.094 C57.664,38.834 57.123,38.704 56.479,38.704 C55.834,38.704 55.298,38.834 54.869,39.094 C54.439,39.353 54.095,39.688 53.835,40.1 C53.575,40.511 53.392,40.985 53.285,41.522 C53.178,42.059 53.124,42.605 53.124,43.159 C53.124,43.714 53.178,44.255 53.285,44.783 L53.285,44.783 Z" id="Fill-4" fill="#111930" sketch:type="MSShapeGroup"></path>
            <path d="M69.763,36.208 L69.763,38.14 L69.844,38.14 C70.327,37.336 70.952,36.75 71.722,36.383 C72.491,36.016 73.279,35.833 74.084,35.833 C75.103,35.833 75.939,35.972 76.593,36.248 C77.246,36.526 77.76,36.911 78.136,37.403 C78.511,37.895 78.775,38.494 78.928,39.201 C79.079,39.908 79.156,40.69 79.156,41.549 L79.156,50.083 L75.345,50.083 L75.345,42.247 C75.345,41.102 75.165,40.247 74.808,39.684 C74.45,39.12 73.816,38.838 72.903,38.838 C71.865,38.838 71.113,39.147 70.648,39.765 C70.183,40.381 69.95,41.397 69.95,42.811 L69.95,50.083 L66.14,50.083 L66.14,36.208 L69.763,36.208" id="Fill-5" fill="#111930" sketch:type="MSShapeGroup"></path>
            <path d="M92.575,49.228 C92.104,50.02 91.487,50.59 90.724,50.938 C89.962,51.287 89.1,51.461 88.139,51.461 C87.046,51.461 86.086,51.249 85.258,50.825 C84.429,50.401 83.747,49.827 83.21,49.102 C82.673,48.376 82.268,47.544 81.995,46.602 C81.722,45.66 81.585,44.68 81.585,43.663 C81.585,42.685 81.722,41.738 81.995,40.824 C82.268,39.91 82.673,39.105 83.21,38.408 C83.747,37.711 84.42,37.151 85.229,36.727 C86.04,36.303 86.982,36.092 88.054,36.092 C88.921,36.092 89.745,36.276 90.527,36.643 C91.308,37.009 91.925,37.551 92.378,38.267 L92.434,38.267 L92.434,30.921 L96.446,30.921 L96.446,51.094 L92.631,51.094 L92.631,49.228 L92.575,49.228 L92.575,49.228 Z M92.406,42.01 C92.292,41.456 92.099,40.965 91.826,40.541 C91.553,40.117 91.201,39.774 90.767,39.51 C90.334,39.246 89.788,39.115 89.128,39.115 C88.469,39.115 87.913,39.246 87.462,39.51 C87.009,39.774 86.647,40.123 86.374,40.556 C86.1,40.989 85.902,41.483 85.781,42.039 C85.658,42.594 85.597,43.174 85.597,43.776 C85.597,44.341 85.663,44.906 85.794,45.472 C85.926,46.037 86.138,46.54 86.43,46.983 C86.723,47.426 87.089,47.784 87.532,48.057 C87.975,48.33 88.507,48.466 89.128,48.466 C89.788,48.466 90.338,48.334 90.781,48.071 C91.224,47.807 91.577,47.453 91.841,47.011 C92.104,46.569 92.292,46.064 92.406,45.499 C92.519,44.934 92.575,44.351 92.575,43.748 C92.575,43.146 92.519,42.567 92.406,42.01 L92.406,42.01 Z" id="Fill-6" fill="#111930" sketch:type="MSShapeGroup"></path>
            <path d="M0.646,15.033 C1.191,11.384 4.59,8.868 8.239,9.412 C11.887,9.957 14.404,13.356 13.859,17.005 C13.315,20.653 9.915,23.17 6.267,22.625 C2.618,22.08 0.102,18.681 0.646,15.033" id="Fill-7" fill="#E7782F" sketch:type="MSShapeGroup"></path>
            <path d="M15.554,8.363 C16.018,5.257 18.911,3.116 22.017,3.579 C25.122,4.043 27.264,6.936 26.801,10.041 C26.337,13.147 23.444,15.289 20.338,14.825 C17.233,14.362 15.091,11.468 15.554,8.363" id="Fill-8" fill="#E9843F" sketch:type="MSShapeGroup"></path>
            <path d="M30.312,5.061 C30.709,2.401 33.187,0.567 35.846,0.964 C38.505,1.361 40.339,3.839 39.943,6.498 C39.546,9.158 37.068,10.992 34.409,10.595 C31.749,10.198 29.915,7.72 30.312,5.061" id="Fill-9" fill="#EC9050" sketch:type="MSShapeGroup"></path>
            <path d="M45.378,4.768 C45.693,2.663 47.654,1.211 49.759,1.525 C51.865,1.839 53.317,3.801 53.003,5.906 C52.689,8.012 50.727,9.464 48.622,9.149 C46.516,8.835 45.064,6.874 45.378,4.768" id="Fill-10" fill="#ED9658" sketch:type="MSShapeGroup"></path>
            <path d="M59.983,6.13 C60.241,4.4 61.853,3.206 63.583,3.465 C65.314,3.723 66.507,5.335 66.248,7.065 C65.99,8.795 64.378,9.989 62.648,9.73 C60.918,9.472 59.725,7.86 59.983,6.13" id="Fill-11" fill="#EFA269" sketch:type="MSShapeGroup"></path>
            <path d="M73.391,10.397 C73.622,8.851 75.062,7.785 76.608,8.016 C78.154,8.246 79.22,9.687 78.99,11.233 C78.759,12.779 77.318,13.845 75.772,13.614 C74.227,13.384 73.16,11.943 73.391,10.397" id="Fill-12" fill="#F2B07B" sketch:type="MSShapeGroup"></path>
            <path d="M84.994,16.492 C85.194,15.15 86.445,14.224 87.787,14.424 C89.13,14.625 90.056,15.876 89.856,17.218 C89.655,18.561 88.404,19.487 87.062,19.286 C85.719,19.086 84.793,17.835 84.994,16.492" id="Fill-13" fill="#F3B784" sketch:type="MSShapeGroup"></path>
            <path d="M96.395,23.24 C96.58,22.007 97.727,21.158 98.959,21.342 C100.191,21.525 101.041,22.673 100.857,23.905 C100.673,25.138 99.525,25.987 98.293,25.803 C97.061,25.619 96.212,24.472 96.395,23.24" id="Fill-14" fill="#F5BE8E" sketch:type="MSShapeGroup"></path>
            <path d="M106.934,31.153 C107.096,30.064 108.111,29.313 109.199,29.476 C110.288,29.638 111.039,30.653 110.877,31.741 C110.714,32.83 109.7,33.581 108.611,33.419 C107.522,33.256 106.771,32.242 106.934,31.153" id="Fill-15" fill="#F6C598" sketch:type="MSShapeGroup"></path>
            <path d="M115,39.224 C115.146,38.243 116.059,37.567 117.04,37.713 C118.02,37.86 118.696,38.773 118.55,39.754 C118.404,40.734 117.49,41.41 116.51,41.264 C115.53,41.117 114.853,40.204 115,39.224" id="Fill-16" fill="#F8CBA2" sketch:type="MSShapeGroup"></path>
            <path d="M121.701,48.954 C121.808,48.234 122.479,47.737 123.2,47.844 C123.92,47.952 124.417,48.623 124.309,49.343 C124.202,50.064 123.531,50.561 122.81,50.453 C122.09,50.346 121.593,49.674 121.701,48.954" id="Fill-17" fill="#F8D1AD" sketch:type="MSShapeGroup"></path>
            <path d="M67.092636,56.3601449 L67.092636,52.4142944 L65.4888387,52.4142944 L65.4888387,56.3601449 L63.1976997,56.3601449 L63.1976997,57.7093712 L65.4888387,57.7093712 L65.4888387,66.6957275 C65.4718672,67.8158455 65.675522,68.5837936 66.0998091,68.999595 C66.5240962,69.4153964 67.2708304,69.623294 68.3400339,69.623294 C68.5776347,69.623294 68.8152319,69.6148083 69.0528327,69.5978369 C69.2904335,69.5808654 69.5280307,69.5723798 69.7656315,69.5723798 L69.7656315,68.2231535 C69.3074014,68.2740679 68.8491782,68.2995248 68.3909481,68.2995248 C67.8139176,68.2655818 67.453279,68.1001123 67.3090213,67.8031113 C67.1647637,67.5061103 67.092636,67.094558 67.092636,66.568442 L67.092636,57.7093712 L69.7656315,57.7093712 L69.7656315,56.3601449 L67.092636,56.3601449 Z M72.0567705,51.3196391 L72.0567705,69.4960085 L73.6605678,69.4960085 L73.6605678,61.8334214 C73.6775393,61.1885049 73.7836095,60.5902691 73.9787815,60.0386958 C74.1739536,59.4871225 74.4454933,59.0119281 74.7934087,58.6130982 C75.1413242,58.2142683 75.5656049,57.9003005 76.0662637,57.6711855 C76.5669226,57.4420705 77.1397016,57.3275147 77.784618,57.3275147 C78.4295344,57.3275147 78.968371,57.429342 79.4011438,57.6329999 C79.8339167,57.8366577 80.1775841,58.116683 80.4321564,58.4730842 C80.6867287,58.8294853 80.8649266,59.2495233 80.9667555,59.7332106 C81.0685844,60.2168979 81.1194981,60.7387633 81.1194981,61.2988223 L81.1194981,69.4960085 L82.7232954,69.4960085 L82.7232954,61.0442513 C82.7232954,60.2635629 82.6469249,59.5592569 82.4941815,58.931312 C82.3414381,58.303367 82.0783841,57.7730161 81.7050114,57.3402432 C81.3316387,56.9074703 80.8352302,56.5722885 80.2157711,56.3346878 C79.5963119,56.097087 78.8283637,55.9782884 77.9119035,55.9782884 C76.9784718,55.9782884 76.1214247,56.2201284 75.3407364,56.7038157 C74.5600481,57.187503 74.0169687,57.828167 73.711482,58.6258268 L73.6605678,58.6258268 L73.6605678,51.3196391 L72.0567705,51.3196391 Z M95.1972744,62.0116211 L86.694603,62.0116211 C86.7624889,61.4176191 86.9025016,60.8363544 87.1146451,60.2678097 C87.3267887,59.699265 87.6110568,59.1986137 87.967458,58.7658408 C88.3238592,58.3330679 88.7566256,57.9851577 89.2657701,57.7220997 C89.7749146,57.4590417 90.3604221,57.3275147 91.02231,57.3275147 C91.6672264,57.3275147 92.2442483,57.4590417 92.7533928,57.7220997 C93.2625373,57.9851577 93.6953037,58.3330679 94.0517049,58.7658408 C94.4081061,59.1986137 94.6838886,59.6950222 94.8790606,60.2550812 C95.0742327,60.8151402 95.1803029,61.4006476 95.1972744,62.0116211 L95.1972744,62.0116211 Z M86.694603,63.3608474 L96.8010717,63.3608474 C96.8350147,62.4443872 96.7501585,61.5406692 96.5465007,60.6496662 C96.3428429,59.7586632 96.0076611,58.969501 95.5409452,58.2821559 C95.0742294,57.5948108 94.4675079,57.039003 93.7207626,56.6147159 C92.9740173,56.1904287 92.0745421,55.9782884 91.02231,55.9782884 C89.9870494,55.9782884 89.091817,56.1777003 88.3365859,56.5765302 C87.5813549,56.9753601 86.9661478,57.5014682 86.4909462,58.1548704 C86.0157446,58.8082726 85.6635916,59.5507639 85.4344765,60.3823667 C85.2053615,61.2139694 85.0908057,62.0625309 85.0908057,62.9280767 C85.0908057,63.8615083 85.2053615,64.7482551 85.4344765,65.5883436 C85.6635916,66.4284321 86.0157446,67.1666806 86.4909462,67.8031113 C86.9661478,68.439542 87.5813549,68.9401933 88.3365859,69.3050802 C89.091817,69.6699671 89.9870494,69.8524079 91.02231,69.8524079 C92.6855155,69.8524079 93.9710862,69.4450983 94.8790606,68.6304671 C95.7870351,67.8158358 96.4107278,66.6617921 96.7501575,65.1683015 L95.1463602,65.1683015 C94.8917879,66.1865905 94.4335647,67.0012096 93.7716768,67.6121831 C93.1097889,68.2231565 92.1933425,68.5286387 91.02231,68.5286387 C90.2585932,68.5286387 89.6052008,68.367412 89.0621133,68.0449538 C88.5190258,67.7224955 88.0692882,67.315186 87.712887,66.823013 C87.3564858,66.3308399 87.0976746,65.7750321 86.9364454,65.1555729 C86.7752163,64.5361137 86.694603,63.9378778 86.694603,63.3608474 L86.694603,63.3608474 Z M108.078567,60.2296241 L108.078567,52.7961509 L114.035528,52.7961509 C115.240504,52.7961509 116.21635,53.101633 116.963095,53.7126065 C117.70984,54.3235799 118.083207,55.2569976 118.083207,56.5128875 C118.083207,57.7687773 117.70984,58.702195 116.963095,59.3131685 C116.21635,59.9241419 115.240504,60.2296241 114.035528,60.2296241 L108.078567,60.2296241 Z M106.347484,51.3196391 L106.347484,69.4960085 L108.078567,69.4960085 L108.078567,61.7061359 L114.417385,61.7061359 C115.232016,61.7061359 115.970265,61.59158 116.632153,61.362465 C117.294041,61.13335 117.862577,60.7939254 118.337778,60.344181 C118.81298,59.8944367 119.177861,59.3471145 119.432434,58.7021981 C119.687006,58.0572816 119.81429,57.3275187 119.81429,56.5128875 C119.81429,55.6982562 119.687006,54.9684933 119.432434,54.3235769 C119.177861,53.6786604 118.81298,53.1313383 118.337778,52.6815939 C117.862577,52.2318496 117.294041,51.8924249 116.632153,51.6633099 C115.970265,51.4341949 115.232016,51.3196391 114.417385,51.3196391 L106.347484,51.3196391 Z M122.105429,56.3601449 L122.105429,69.4960085 L123.709226,69.4960085 L123.709226,56.3601449 L122.105429,56.3601449 Z M126.814993,51.3196391 L126.814993,69.4960085 L128.41879,69.4960085 L128.41879,51.3196391 L126.814993,51.3196391 Z M131.524556,51.3196391 L131.524556,69.4960085 L133.128353,69.4960085 L133.128353,51.3196391 L131.524556,51.3196391 Z" id="the-Pill" fill="#E7782F" sketch:type="MSShapeGroup"></path>
        </g>
    </g>
</svg>