<?xml version="1.0" encoding="UTF-8" standalone="no"?>
<svg width="48px" height="48px" viewBox="0 0 48 48" version="1.1" xmlns="http://www.w3.org/2000/svg" xmlns:xlink="http://www.w3.org/1999/xlink" xmlns:sketch="http://www.bohemiancoding.com/sketch/ns">
    <!-- Generator: Sketch 3.2.2 (9983) - http://www.bohemiancoding.com/sketch -->
    <title>person</title>
    <desc>Created with Sketch.</desc>
    <defs></defs>
    <g id="Page-1" stroke="none" stroke-width="1" fill="none" fill-rule="evenodd" sketch:type="MSPage">
        <g id="person" sketch:type="MSLayerGroup" fill="#FFFFFF">
            <path d="M32,28 C31.9,28 31.7,28 31.6,27.9 C31.2,27.7 31,27.4 31,27 L31,20 L28,20 C27.4,20 27,19.6 27,19 C27,18.4 27.4,18 28,18 L32,18 C32.6,18 33,18.4 33,19 L33,24.6 L39.3,18.3 C39.5,18.1 39.7,18 40,18 L46,18 L46,2 L18,2 L18,9 C18,9.6 17.6,10 17,10 C16.4,10 16,9.6 16,9 L16,1 C16,0.4 16.4,0 17,0 L47,0 C47.6,0 48,0.4 48,1 L48,19 C48,19.6 47.6,20 47,20 L40.4,20 L32.7,27.7 C32.5,27.9 32.3,28 32,28" id="Fill-1" sketch:type="MSShapeGroup"></path>
            <path d="M31,48 L1,48 C0.4,48 0,47.6 0,47 L0,44 C0,41.6 1.5,39.4 3.8,38.6 L11,36 L11,32.4 C11,31.8 11.4,31.4 12,31.4 C12.6,31.4 13,31.8 13,32.4 L13,36.7 C13,37.1 12.7,37.5 12.3,37.6 L4.4,40.4 C2.9,40.9 1.9,42.3 1.9,43.9 L1.9,45.9 L29.9,45.9 L29.9,43.9 C29.9,42.3 28.9,40.9 27.4,40.4 L19.5,37.6 C19.1,37.5 18.8,37.1 18.8,36.7 L18.8,32.1 C18.8,31.5 19.2,31.1 19.8,31.1 C20.4,31.1 20.8,31.5 20.8,32.1 L20.8,36 L28,38.6 C30.3,39.4 31.8,41.6 31.8,44 L31.8,47 C32,47.6 31.6,48 31,48" id="Fill-2" sketch:type="MSShapeGroup"></path>
            <path d="M15.8,34.6 C10.9,34.6 6.9,29.9 6.9,24.1 C6.9,18.3 10.9,13.6 15.8,13.6 C20.7,13.6 24.7,18.3 24.7,24.1 C24.7,29.9 20.7,34.6 15.8,34.6 L15.8,34.6 Z M15.8,15.6 C12,15.6 8.9,19.4 8.9,24.1 C8.9,28.8 12,32.6 15.8,32.6 C19.6,32.6 22.7,28.8 22.7,24.1 C22.7,19.4 19.6,15.6 15.8,15.6 L15.8,15.6 Z" id="Fill-3" sketch:type="MSShapeGroup"></path>
            <path d="M21.6,24.5 C19.7,24.5 18.2,23.7 17,22 C15.6,23.4 13.3,24.3 11.1,24.3 C9.8,24.3 8.7,24 7.6,23.4 C7.1,23.1 6.9,22.5 7.2,22.1 C7.5,21.6 8.1,21.4 8.5,21.7 C9.3,22.1 10.1,22.3 11.1,22.3 C13.1,22.3 15.5,21.1 16.2,19.8 C16.4,19.5 16.7,19.3 17.1,19.3 C17.5,19.3 17.8,19.5 18,19.8 C19.3,22.1 20.6,22.8 22.8,22.4 C23.1,22.3 23.3,22.4 23.6,22.3 C24.2,22.2 24.6,22.6 24.7,23.2 C24.8,23.7 24.4,24.2 23.8,24.3 L23.4,24.3 L23.2,24.3 C22.6,24.4 22.1,24.5 21.6,24.5" id="Fill-4" sketch:type="MSShapeGroup"></path>
            <path d="M36,10 L38,10 L38,12 L36,12 L36,10 Z" id="Fill-5" sketch:type="MSShapeGroup"></path>
            <path d="M31,10 L33,10 L33,12 L31,12 L31,10 Z" id="Fill-6" sketch:type="MSShapeGroup"></path>
            <path d="M26,10 L28,10 L28,12 L26,12 L26,10 Z" id="Fill-7" sketch:type="MSShapeGroup"></path>
        </g>
    </g>
</svg>