<?xml version="1.0" encoding="UTF-8" standalone="no"?>
<svg width="43px" height="46px" viewBox="0 0 43 46" version="1.1" xmlns="http://www.w3.org/2000/svg" xmlns:xlink="http://www.w3.org/1999/xlink" xmlns:sketch="http://www.bohemiancoding.com/sketch/ns">
    <!-- Generator: Sketch 3.2.2 (9983) - http://www.bohemiancoding.com/sketch -->
    <title>book</title>
    <desc>Created with Sketch.</desc>
    <defs></defs>
    <g id="Page-1" stroke="none" stroke-width="1" fill="none" fill-rule="evenodd" sketch:type="MSPage">
        <g id="book" sketch:type="MSLayerGroup" transform="translate(0.000000, -1.000000)" fill="#FFFFFF">
            <path d="M21.86,47.02 C21.66,47.02 21.56,47.02 21.46,46.92 L1.46,36.92 C1.16,36.72 0.86,36.42 0.86,36.021 L0.86,5.02 C0.86,4.72 1.06,4.32 1.36,4.12 C1.66,3.92 2.06,3.92 2.36,4.12 L21.86,13.92 L41.36,4.12 C41.66,3.92 42.06,4.02 42.36,4.12 C42.66,4.32 42.86,4.62 42.86,5.02 L42.86,36.021 C42.86,36.42 42.66,36.72 42.26,36.92 L22.26,46.92 C22.16,47.02 21.96,47.02 21.86,47.02 L21.86,47.02 Z M2.86,35.42 L21.86,44.92 L40.86,35.42 L40.86,6.62 L22.36,15.92 C22.06,16.02 21.76,16.02 21.46,15.92 L2.86,6.62 L2.86,35.42 L2.86,35.42 Z" id="Fill-1" sketch:type="MSShapeGroup"></path>
            <path d="M21.86,11.02 C21.66,11.02 21.56,11.02 21.36,10.92 L5.36,2.82 C4.86,2.62 4.66,1.92 4.96,1.521 C5.16,1.02 5.86,0.82 6.26,1.12 L21.76,9.021 L37.26,1.12 C37.76,0.82 38.36,1.02 38.56,1.521 C38.76,2.02 38.66,2.62 38.16,2.82 L22.16,10.92 C22.16,11.02 22.06,11.02 21.86,11.02" id="Fill-2" sketch:type="MSShapeGroup"></path>
            <path d="M21.86,47.02 C21.26,47.02 20.86,46.62 20.86,46.02 L20.86,15.021 C20.86,14.42 21.26,14.02 21.86,14.02 C22.46,14.02 22.86,14.42 22.86,15.021 L22.86,46.02 C22.86,46.62 22.36,47.02 21.86,47.02" id="Fill-3" sketch:type="MSShapeGroup"></path>
        </g>
    </g>
</svg>