<?xml version="1.0" encoding="UTF-8" standalone="no"?>
<svg width="864px" height="74px" viewBox="0 0 864 74" version="1.1" xmlns="http://www.w3.org/2000/svg" xmlns:xlink="http://www.w3.org/1999/xlink" xmlns:sketch="http://www.bohemiancoding.com/sketch/ns">
    <!-- Generator: Sketch 3.2.2 (9983) - http://www.bohemiancoding.com/sketch -->
    <title>Imported Layers</title>
    <desc>Created with Sketch.</desc>
    <defs>
        <path id="path-1" d="M0.266,0.779 L864,0.779 L864,97.181 L0.266,97.181"></path>
    </defs>
    <g id="Page-1" stroke="none" stroke-width="1" fill="none" fill-rule="evenodd" sketch:type="MSPage">
        <g id="Imported-Layers" sketch:type="MSLayerGroup" transform="translate(0.000000, -5.000000)">
            <g id="Group-3">
                <mask id="mask-2" sketch:name="Clip 2" fill="white">
                    <use xlink:href="#path-1"></use>
                </mask>
                <g id="Clip-2"></g>
                <path d="M-32.442,23.426 C396.137,74.076 695.729,49.416 881.268,29.543 L881.268,3.302 C421.555,71.416 82.401,26.134 -32.442,5.871 L-32.442,23.426" id="Fill-1" fill="#EC9050" sketch:type="MSShapeGroup" mask="url(#mask-2)"></path>
            </g>
            <path d="M761.831,40.94 C747.705,42.093 733.143,43.206 718.13,44.261 C776.755,47.904 825.655,52.779 864,57.396 L864,50.866 C829.051,47.069 795.007,43.777 761.831,40.94 M113.162,38.278 C71.766,41.657 34.164,45.38 0.266,48.977 L0.266,78.059 C94.399,64.273 183.028,54.784 265.465,48.565 C216.931,46.176 166.162,42.81 113.162,38.278 M416.734,25.851 C334.473,25.851 260.415,28.533 194.249,32.517 C253.781,36.67 322.128,39.47 398.198,39.47 C467.472,39.47 543.138,37.149 624.409,31.412 C550.136,27.487 480.927,25.851 416.734,25.851" id="Fill-4" fill="#2FB3B9" sketch:type="MSShapeGroup"></path>
            <path d="M624.409,31.412 C543.138,37.149 467.472,39.47 398.198,39.47 C322.128,39.47 253.781,36.67 194.249,32.517 C165.761,34.233 138.735,36.19 113.162,38.278 C166.162,42.81 216.931,46.176 265.465,48.565 C361.624,41.311 449.44,38.501 527.83,38.501 C599.329,38.501 663.002,40.835 718.13,44.261 C733.143,43.206 747.705,42.093 761.831,40.94 C714.206,36.868 668.425,33.739 624.409,31.412" id="Fill-5" fill="#499B8B" sketch:type="MSShapeGroup"></path>
        </g>
    </g>
</svg>