<?xml version="1.0" encoding="UTF-8" standalone="no"?>
<svg width="69px" height="45px" viewBox="0 0 69 45" version="1.1" xmlns="http://www.w3.org/2000/svg" xmlns:xlink="http://www.w3.org/1999/xlink" xmlns:sketch="http://www.bohemiancoding.com/sketch/ns">
    <!-- Generator: Sketch 3.2.2 (9983) - http://www.bohemiancoding.com/sketch -->
    <title>Imported Layers</title>
    <desc>Created with Sketch.</desc>
    <defs></defs>
    <g id="Page-1" stroke="none" stroke-width="1" fill="none" fill-rule="evenodd" sketch:type="MSPage">
        <g id="Imported-Layers" sketch:type="MSLayerGroup" fill="#111930">
            <path d="M0.836,32.863 L1.281,32.863 L1.281,35.759 C1.275,36.846 1.792,37.259 2.651,37.259 C3.515,37.259 4.033,36.846 4.026,35.759 L4.026,32.863 L4.472,32.863 L4.472,35.857 C4.472,36.82 3.954,37.639 2.651,37.639 C1.354,37.639 0.836,36.82 0.836,35.857 L0.836,32.863" id="Fill-1" sketch:type="MSShapeGroup"></path>
            <path d="M5.513,34.16 L5.926,34.16 L5.926,34.743 L5.939,34.743 C6.089,34.337 6.542,34.062 7.02,34.062 C7.97,34.062 8.258,34.56 8.258,35.365 L8.258,37.54 L7.845,37.54 L7.845,35.431 C7.845,34.848 7.655,34.409 6.987,34.409 C6.332,34.409 5.939,34.907 5.926,35.569 L5.926,37.54 L5.513,37.54 L5.513,34.16" id="Fill-2" sketch:type="MSShapeGroup"></path>
            <path d="M9.371,37.541 L9.783,37.541 L9.783,34.161 L9.371,34.161 L9.371,37.541 Z M9.371,33.525 L9.783,33.525 L9.783,32.864 L9.371,32.864 L9.371,33.525 Z" id="Fill-3" sketch:type="MSShapeGroup"></path>
            <path d="M10.524,34.16 L10.983,34.16 L12.044,37.128 L12.057,37.128 L13.105,34.16 L13.531,34.16 L12.267,37.54 L11.828,37.54 L10.524,34.16" id="Fill-4" sketch:type="MSShapeGroup"></path>
            <path d="M16.564,35.615 C16.544,34.993 16.158,34.41 15.49,34.41 C14.815,34.41 14.442,34.999 14.376,35.615 L16.564,35.615 L16.564,35.615 Z M14.376,35.962 C14.383,36.565 14.697,37.292 15.49,37.292 C16.092,37.292 16.42,36.938 16.551,36.427 L16.964,36.427 C16.787,37.194 16.341,37.639 15.49,37.639 C14.415,37.639 13.963,36.814 13.963,35.851 C13.963,34.96 14.415,34.062 15.49,34.062 C16.577,34.062 17.009,35.012 16.977,35.962 L14.376,35.962 L14.376,35.962 Z" id="Fill-5" sketch:type="MSShapeGroup"></path>
            <path d="M17.861,34.16 L18.241,34.16 L18.241,34.953 L18.254,34.953 C18.464,34.409 18.922,34.088 19.532,34.114 L19.532,34.527 C18.785,34.488 18.274,35.038 18.274,35.739 L18.274,37.54 L17.861,37.54 L17.861,34.16" id="Fill-6" sketch:type="MSShapeGroup"></path>
            <path d="M22.178,35.15 C22.158,34.639 21.765,34.41 21.294,34.41 C20.927,34.41 20.494,34.554 20.494,34.993 C20.494,35.36 20.914,35.491 21.195,35.563 L21.746,35.687 C22.217,35.759 22.709,36.034 22.709,36.624 C22.709,37.358 21.981,37.639 21.353,37.639 C20.566,37.639 20.029,37.273 19.964,36.447 L20.376,36.447 C20.409,37.004 20.822,37.292 21.372,37.292 C21.759,37.292 22.296,37.122 22.296,36.65 C22.296,36.257 21.929,36.126 21.556,36.034 L21.025,35.916 C20.488,35.772 20.082,35.589 20.082,35.012 C20.082,34.325 20.756,34.062 21.353,34.062 C22.027,34.062 22.564,34.416 22.591,35.15 L22.178,35.15" id="Fill-7" sketch:type="MSShapeGroup"></path>
            <path d="M23.606,37.541 L24.018,37.541 L24.018,34.161 L23.606,34.161 L23.606,37.541 Z M23.606,33.525 L24.018,33.525 L24.018,32.864 L23.606,32.864 L23.606,33.525 Z" id="Fill-8" sketch:type="MSShapeGroup"></path>
            <path d="M25.793,34.16 L26.481,34.16 L26.481,34.507 L25.793,34.507 L25.793,36.787 C25.793,37.056 25.832,37.213 26.127,37.232 C26.245,37.232 26.363,37.226 26.481,37.213 L26.481,37.567 C26.356,37.567 26.238,37.58 26.114,37.58 C25.564,37.58 25.374,37.396 25.38,36.82 L25.38,34.507 L24.791,34.507 L24.791,34.16 L25.38,34.16 L25.38,33.145 L25.793,33.145 L25.793,34.16" id="Fill-9" sketch:type="MSShapeGroup"></path>
            <path d="M27.025,34.16 L27.464,34.16 L28.578,37.042 L29.619,34.16 L30.032,34.16 L28.564,38.058 C28.329,38.628 28.191,38.792 27.674,38.792 C27.51,38.785 27.425,38.785 27.359,38.759 L27.359,38.412 C27.457,38.431 27.549,38.444 27.641,38.444 C28.008,38.444 28.093,38.228 28.23,37.914 L28.374,37.527 L27.025,34.16" id="Fill-10" sketch:type="MSShapeGroup"></path>
            <path d="M32.764,35.85 C32.764,36.572 33.157,37.292 33.95,37.292 C34.742,37.292 35.135,36.572 35.135,35.85 C35.135,35.13 34.742,34.41 33.95,34.41 C33.157,34.41 32.764,35.13 32.764,35.85 M35.548,35.85 C35.548,36.821 34.985,37.639 33.95,37.639 C32.914,37.639 32.351,36.821 32.351,35.85 C32.351,34.88 32.914,34.061 33.95,34.061 C34.985,34.061 35.548,34.88 35.548,35.85" id="Fill-11" sketch:type="MSShapeGroup"></path>
            <path d="M37.729,34.508 L37.061,34.508 L37.061,37.541 L36.648,37.541 L36.648,34.508 L36.072,34.508 L36.072,34.161 L36.648,34.161 L36.648,33.853 C36.642,33.27 36.805,32.864 37.467,32.864 C37.585,32.864 37.683,32.87 37.814,32.89 L37.814,33.244 C37.703,33.224 37.611,33.211 37.513,33.211 C37.054,33.211 37.067,33.499 37.061,33.866 L37.061,34.161 L37.729,34.161 L37.729,34.508" id="Fill-12" sketch:type="MSShapeGroup"></path>
            <path d="M44.096,34.278 C43.939,33.557 43.343,33.145 42.661,33.145 C41.423,33.145 40.899,34.18 40.899,35.202 C40.899,36.224 41.423,37.259 42.661,37.259 C43.526,37.259 44.076,36.59 44.161,35.759 L44.607,35.759 C44.482,36.905 43.755,37.639 42.661,37.639 C41.187,37.639 40.454,36.479 40.454,35.202 C40.454,33.924 41.187,32.765 42.661,32.765 C43.546,32.765 44.423,33.295 44.541,34.278 L44.096,34.278" id="Fill-13" sketch:type="MSShapeGroup"></path>
            <path d="M47.535,35.693 L47.522,35.693 C47.47,35.791 47.286,35.824 47.175,35.844 C46.474,35.968 45.603,35.961 45.603,36.623 C45.603,37.036 45.97,37.291 46.356,37.291 C46.985,37.291 47.542,36.892 47.535,36.23 L47.535,35.693 L47.535,35.693 Z M45.334,35.195 C45.373,34.402 45.93,34.062 46.703,34.062 C47.299,34.062 47.948,34.245 47.948,35.149 L47.948,36.944 C47.948,37.101 48.027,37.193 48.19,37.193 C48.236,37.193 48.289,37.18 48.321,37.167 L48.321,37.514 C48.23,37.534 48.164,37.54 48.053,37.54 C47.634,37.54 47.568,37.304 47.568,36.951 L47.555,36.951 C47.267,37.39 46.972,37.639 46.323,37.639 C45.701,37.639 45.19,37.331 45.19,36.649 C45.19,35.699 46.114,35.667 47.005,35.562 C47.345,35.522 47.535,35.477 47.535,35.103 C47.535,34.546 47.136,34.409 46.651,34.409 C46.14,34.409 45.76,34.645 45.747,35.195 L45.334,35.195 L45.334,35.195 Z" id="Fill-14" sketch:type="MSShapeGroup"></path>
            <path d="M49.107,32.864 L49.519,32.864 L49.519,37.541 L49.107,37.541 L49.107,32.864 Z" id="Fill-15" sketch:type="MSShapeGroup"></path>
            <path d="M50.712,37.541 L51.125,37.541 L51.125,34.161 L50.712,34.161 L50.712,37.541 Z M50.712,33.525 L51.125,33.525 L51.125,32.864 L50.712,32.864 L50.712,33.525 Z" id="Fill-16" sketch:type="MSShapeGroup"></path>
            <path d="M53.549,34.508 L52.881,34.508 L52.881,37.541 L52.468,37.541 L52.468,34.508 L51.892,34.508 L51.892,34.161 L52.468,34.161 L52.468,33.853 C52.461,33.27 52.625,32.864 53.287,32.864 C53.405,32.864 53.503,32.87 53.634,32.89 L53.634,33.244 C53.523,33.224 53.431,33.211 53.333,33.211 C52.874,33.211 52.887,33.499 52.881,33.866 L52.881,34.161 L53.549,34.161 L53.549,34.508" id="Fill-17" sketch:type="MSShapeGroup"></path>
            <path d="M54.381,35.85 C54.381,36.572 54.774,37.292 55.567,37.292 C56.359,37.292 56.752,36.572 56.752,35.85 C56.752,35.13 56.359,34.41 55.567,34.41 C54.774,34.41 54.381,35.13 54.381,35.85 M57.165,35.85 C57.165,36.821 56.602,37.639 55.567,37.639 C54.531,37.639 53.968,36.821 53.968,35.85 C53.968,34.88 54.531,34.061 55.567,34.061 C56.602,34.061 57.165,34.88 57.165,35.85" id="Fill-18" sketch:type="MSShapeGroup"></path>
            <path d="M57.846,34.16 L58.226,34.16 L58.226,34.953 L58.239,34.953 C58.449,34.409 58.907,34.088 59.516,34.114 L59.516,34.527 C58.77,34.488 58.259,35.038 58.259,35.739 L58.259,37.54 L57.846,37.54 L57.846,34.16" id="Fill-19" sketch:type="MSShapeGroup"></path>
            <path d="M60.23,34.16 L60.643,34.16 L60.643,34.743 L60.656,34.743 C60.807,34.337 61.258,34.062 61.737,34.062 C62.687,34.062 62.975,34.56 62.975,35.365 L62.975,37.54 L62.562,37.54 L62.562,35.431 C62.562,34.848 62.372,34.409 61.704,34.409 C61.049,34.409 60.656,34.907 60.643,35.569 L60.643,37.54 L60.23,37.54 L60.23,34.16" id="Fill-20" sketch:type="MSShapeGroup"></path>
            <path d="M64.088,37.541 L64.501,37.541 L64.501,34.161 L64.088,34.161 L64.088,37.541 Z M64.088,33.525 L64.501,33.525 L64.501,32.864 L64.088,32.864 L64.088,33.525 Z" id="Fill-21" sketch:type="MSShapeGroup"></path>
            <path d="M67.75,35.693 L67.737,35.693 C67.685,35.791 67.501,35.824 67.39,35.844 C66.689,35.968 65.818,35.961 65.818,36.623 C65.818,37.036 66.185,37.291 66.571,37.291 C67.2,37.291 67.757,36.892 67.75,36.23 L67.75,35.693 L67.75,35.693 Z M65.549,35.195 C65.588,34.402 66.145,34.062 66.918,34.062 C67.514,34.062 68.163,34.245 68.163,35.149 L68.163,36.944 C68.163,37.101 68.241,37.193 68.405,37.193 C68.451,37.193 68.504,37.18 68.536,37.167 L68.536,37.514 C68.445,37.534 68.379,37.54 68.268,37.54 C67.848,37.54 67.783,37.304 67.783,36.951 L67.77,36.951 C67.482,37.39 67.187,37.639 66.538,37.639 C65.916,37.639 65.405,37.331 65.405,36.649 C65.405,35.699 66.329,35.667 67.22,35.562 C67.56,35.522 67.75,35.477 67.75,35.103 C67.75,34.546 67.351,34.409 66.866,34.409 C66.355,34.409 65.975,34.645 65.962,35.195 L65.549,35.195 L65.549,35.195 Z" id="Fill-22" sketch:type="MSShapeGroup"></path>
            <path d="M1.091,43.083 C1.071,44.046 1.766,44.341 2.617,44.341 C3.109,44.341 3.856,44.072 3.856,43.391 C3.856,42.86 3.325,42.651 2.893,42.546 L1.851,42.29 C1.301,42.153 0.796,41.891 0.796,41.164 C0.796,40.705 1.091,39.847 2.408,39.847 C3.332,39.847 4.144,40.345 4.137,41.301 L3.692,41.301 C3.666,40.587 3.076,40.227 2.414,40.227 C1.805,40.227 1.242,40.463 1.242,41.157 C1.242,41.596 1.569,41.779 1.949,41.871 L3.089,42.153 C3.751,42.33 4.301,42.618 4.301,43.384 C4.301,43.705 4.17,44.721 2.513,44.721 C1.405,44.721 0.593,44.223 0.646,43.083 L1.091,43.083" id="Fill-23" sketch:type="MSShapeGroup"></path>
            <path d="M7.255,42.775 L7.242,42.775 C7.19,42.873 7.006,42.906 6.895,42.926 C6.194,43.05 5.323,43.043 5.323,43.705 C5.323,44.118 5.689,44.373 6.076,44.373 C6.705,44.373 7.262,43.974 7.255,43.312 L7.255,42.775 L7.255,42.775 Z M5.054,42.277 C5.093,41.484 5.65,41.144 6.423,41.144 C7.019,41.144 7.668,41.327 7.668,42.231 L7.668,44.026 C7.668,44.183 7.746,44.275 7.91,44.275 C7.956,44.275 8.008,44.262 8.041,44.249 L8.041,44.596 C7.95,44.616 7.884,44.622 7.773,44.622 C7.353,44.622 7.288,44.386 7.288,44.033 L7.275,44.033 C6.987,44.472 6.692,44.721 6.043,44.721 C5.421,44.721 4.91,44.413 4.91,43.731 C4.91,42.781 5.834,42.749 6.724,42.644 C7.065,42.604 7.255,42.559 7.255,42.185 C7.255,41.628 6.856,41.491 6.371,41.491 C5.86,41.491 5.48,41.727 5.467,42.277 L5.054,42.277 L5.054,42.277 Z" id="Fill-24" sketch:type="MSShapeGroup"></path>
            <path d="M8.814,41.242 L9.227,41.242 L9.227,41.825 L9.24,41.825 C9.39,41.419 9.843,41.144 10.321,41.144 C11.271,41.144 11.559,41.642 11.559,42.447 L11.559,44.622 L11.146,44.622 L11.146,42.513 C11.146,41.93 10.956,41.491 10.288,41.491 C9.633,41.491 9.24,41.989 9.227,42.651 L9.227,44.622 L8.814,44.622 L8.814,41.242" id="Fill-25" sketch:type="MSShapeGroup"></path>
            <path d="M14.828,39.945 L17.796,39.945 L17.796,40.325 L15.273,40.325 L15.273,42.015 L17.514,42.015 L17.514,42.395 L15.273,42.395 L15.273,44.623 L14.828,44.623 L14.828,39.945" id="Fill-26" sketch:type="MSShapeGroup"></path>
            <path d="M18.398,41.242 L18.778,41.242 L18.778,42.035 L18.791,42.035 C19.001,41.491 19.459,41.17 20.068,41.196 L20.068,41.609 C19.322,41.57 18.811,42.12 18.811,42.821 L18.811,44.622 L18.398,44.622 L18.398,41.242" id="Fill-27" sketch:type="MSShapeGroup"></path>
            <path d="M22.754,42.775 L22.741,42.775 C22.689,42.873 22.505,42.906 22.394,42.926 C21.693,43.05 20.822,43.043 20.822,43.705 C20.822,44.118 21.188,44.373 21.575,44.373 C22.204,44.373 22.761,43.974 22.754,43.312 L22.754,42.775 L22.754,42.775 Z M20.553,42.277 C20.592,41.484 21.149,41.144 21.922,41.144 C22.518,41.144 23.167,41.327 23.167,42.231 L23.167,44.026 C23.167,44.183 23.245,44.275 23.409,44.275 C23.455,44.275 23.507,44.262 23.54,44.249 L23.54,44.596 C23.449,44.616 23.383,44.622 23.272,44.622 C22.852,44.622 22.787,44.386 22.787,44.033 L22.774,44.033 C22.485,44.472 22.191,44.721 21.542,44.721 C20.92,44.721 20.409,44.413 20.409,43.731 C20.409,42.781 21.333,42.749 22.223,42.644 C22.564,42.604 22.754,42.559 22.754,42.185 C22.754,41.628 22.355,41.491 21.87,41.491 C21.359,41.491 20.979,41.727 20.966,42.277 L20.553,42.277 L20.553,42.277 Z" id="Fill-28" sketch:type="MSShapeGroup"></path>
            <path d="M24.313,41.242 L24.726,41.242 L24.726,41.825 L24.739,41.825 C24.89,41.419 25.342,41.144 25.82,41.144 C26.77,41.144 27.058,41.642 27.058,42.447 L27.058,44.622 L26.645,44.622 L26.645,42.513 C26.645,41.93 26.455,41.491 25.787,41.491 C25.132,41.491 24.739,41.989 24.726,42.651 L24.726,44.622 L24.313,44.622 L24.313,41.242" id="Fill-29" sketch:type="MSShapeGroup"></path>
            <path d="M30.418,42.303 C30.307,41.799 29.999,41.491 29.461,41.491 C28.669,41.491 28.276,42.211 28.276,42.932 C28.276,43.653 28.669,44.373 29.461,44.373 C29.973,44.373 30.392,43.973 30.444,43.41 L30.857,43.41 C30.745,44.222 30.215,44.72 29.461,44.72 C28.426,44.72 27.863,43.901 27.863,42.932 C27.863,41.962 28.426,41.143 29.461,41.143 C30.182,41.143 30.739,41.53 30.831,42.303 L30.418,42.303" id="Fill-30" sketch:type="MSShapeGroup"></path>
            <path d="M31.734,44.623 L32.147,44.623 L32.147,41.243 L31.734,41.243 L31.734,44.623 Z M31.734,40.607 L32.147,40.607 L32.147,39.945 L31.734,39.945 L31.734,40.607 Z" id="Fill-31" sketch:type="MSShapeGroup"></path>
            <path d="M35.226,42.231 C35.206,41.72 34.813,41.491 34.342,41.491 C33.975,41.491 33.542,41.635 33.542,42.074 C33.542,42.441 33.962,42.572 34.243,42.644 L34.794,42.768 C35.265,42.84 35.757,43.115 35.757,43.705 C35.757,44.439 35.029,44.72 34.4,44.72 C33.614,44.72 33.077,44.354 33.012,43.528 L33.424,43.528 C33.457,44.085 33.87,44.373 34.42,44.373 C34.807,44.373 35.344,44.203 35.344,43.731 C35.344,43.338 34.977,43.207 34.604,43.115 L34.073,42.997 C33.536,42.853 33.13,42.67 33.13,42.093 C33.13,41.405 33.804,41.143 34.4,41.143 C35.075,41.143 35.612,41.497 35.639,42.231 L35.226,42.231" id="Fill-32" sketch:type="MSShapeGroup"></path>
            <path d="M38.934,42.303 C38.823,41.799 38.515,41.491 37.978,41.491 C37.185,41.491 36.792,42.211 36.792,42.932 C36.792,43.653 37.185,44.373 37.978,44.373 C38.489,44.373 38.908,43.973 38.96,43.41 L39.373,43.41 C39.262,44.222 38.731,44.72 37.978,44.72 C36.942,44.72 36.379,43.901 36.379,42.932 C36.379,41.962 36.942,41.143 37.978,41.143 C38.698,41.143 39.255,41.53 39.347,42.303 L38.934,42.303" id="Fill-33" sketch:type="MSShapeGroup"></path>
            <path d="M40.486,42.932 C40.486,43.653 40.879,44.373 41.672,44.373 C42.464,44.373 42.857,43.653 42.857,42.932 C42.857,42.211 42.464,41.491 41.672,41.491 C40.879,41.491 40.486,42.211 40.486,42.932 M43.27,42.932 C43.27,43.902 42.707,44.721 41.672,44.721 C40.636,44.721 40.073,43.902 40.073,42.932 C40.073,41.963 40.636,41.144 41.672,41.144 C42.707,41.144 43.27,41.963 43.27,42.932" id="Fill-34" sketch:type="MSShapeGroup"></path>
            <path d="M55.589,11.953 L55.589,8.628 L42.941,8.628 L42.941,20.88 C42.873,19.444 42.349,18.331 41.356,17.547 C40.67,17.006 39.64,16.573 38.265,16.25 L35.128,15.51 C33.917,15.227 33.126,14.981 32.753,14.77 C32.41,14.584 32.17,14.341 32.03,14.042 L32.029,14.043 C32.028,14.041 32.028,14.039 32.027,14.036 C31.933,13.832 31.88,13.594 31.88,13.338 C31.88,12.79 32.068,12.324 32.457,11.958 L32.457,11.956 C32.465,11.949 32.474,11.941 32.483,11.933 C32.483,11.932 32.484,11.931 32.484,11.932 C32.569,11.855 32.662,11.782 32.765,11.714 C33.354,11.326 34.141,11.132 35.127,11.132 C36.014,11.132 36.756,11.282 37.353,11.581 C38.248,12.034 38.729,12.798 38.795,13.873 L42.385,13.873 C42.319,11.973 41.613,10.524 40.267,9.525 C38.921,8.527 37.294,8.027 35.387,8.027 C33.104,8.027 31.373,8.557 30.194,9.616 C29.469,10.267 28.968,11.021 28.689,11.877 L28.688,11.877 C28.628,12.061 28.578,12.253 28.538,12.447 C28.101,14.508 26.773,15.908 24.554,15.908 C21.001,15.908 19.666,12.885 19.666,9.886 C19.666,6.738 21.001,3.715 24.554,3.715 C26.518,3.715 28.232,5.075 28.484,6.863 L32.314,6.863 C31.835,2.707 28.509,0.388 24.554,0.388 C19.244,0.388 16.022,4.17 15.734,9.152 L15.734,0.817 L11.778,0.817 L11.778,12.003 C11.778,14.674 10.871,15.908 8.049,15.908 C4.849,15.908 4.346,13.968 4.346,12.003 L4.346,0.817 L0.39,0.817 L0.39,12.003 C0.39,16.891 3.211,19.234 8.049,19.234 C12.862,19.234 15.734,16.866 15.734,12.003 L15.734,10.601 C16.022,15.453 19.244,19.234 24.554,19.234 C26.736,19.234 28.597,18.53 29.969,17.277 C30.054,17.345 30.141,17.412 30.233,17.475 C30.945,17.968 32.251,18.425 34.153,18.845 L36.089,19.269 C37.221,19.512 38.049,19.791 38.571,20.106 C39.092,20.43 39.353,20.887 39.353,21.477 C39.353,22.487 38.821,23.179 37.756,23.55 C37.194,23.744 36.464,23.842 35.564,23.842 C34.061,23.842 33.001,23.474 32.382,22.738 C32.043,22.334 31.816,21.723 31.701,20.907 L28.135,20.907 C28.135,22.766 28.809,24.228 30.157,25.291 C31.506,26.354 33.357,26.885 35.71,26.885 C38.015,26.885 39.798,26.346 41.061,25.266 C42.222,24.274 42.848,23.046 42.941,21.585 L42.941,26.617 L46.897,26.617 L46.897,19.184 L54.43,19.184 L54.43,16.11 L46.897,16.11 L46.897,11.953 L55.589,11.953" id="Fill-35" sketch:type="MSShapeGroup"></path>
        </g>
    </g>
</svg>